<?xml version="1.0" encoding="UTF-8"?>
<svg id="Calque_1" xmlns="http://www.w3.org/2000/svg" version="1.1" viewBox="0 0 1438.12 479.1">
  <!-- Generator: Adobe Illustrator 30.3.0, SVG Export Plug-In . SVG Version: 2.1.3 Build 182)  -->
  <defs>
    <style>
      .st0 {
        fill: #fff;
      }
    </style>
  </defs>
  <path class="st0" d="M61.76,229.89l-28.37,30.39h88.14l42.83-45.9h95.22v-22.75h-73.99l42.86-45.91h-75.79c-7.88,0-15.4,3.27-20.77,9.03l-34.43,36.88H31.1c-6.3,0-12.31,2.61-16.61,7.22l-14.49,15.53h102.47l-26.7,7.11c-5.37,1.43-10.22,4.34-14.01,8.4Z"/>
  <path class="st0" d="M407.66,142.26c2.31,2.34,3.61,5.5,3.61,8.79v122.97c0,20.34-7.83,39.72-21.81,54.7l-135.98,144.42c-2.89,3.08-7.75,3.12-10.71.13l-175.61-178.32h24.65c4.64,0,9.23,1.51,12.62,4.97l97.56,99.19,112.6-120.62c7.7-8.26,11.99-18.91,11.99-30.15V119.2c0-4.5-3.65-8.15-8.15-8.15h-145.75l21.18-22.78,27.07-29.05c10.86-11.58,24.82-19.75,40.25-23.5l53.91-12.99H115.37L92.84,0h271.64l-21.22,22.73-61.18,65.54h68.21c2.65,0,5.19,1.06,7.05,2.95l50.33,51.04h0Z"/>
  <g>
    <path class="st0" d="M1435.84,92.8c-1.48-3.5-3.58-6.54-6.23-9.22-2.68-2.68-5.72-4.82-9.22-6.24-3.55-1.56-7.34-2.3-11.3-2.3s-7.72.74-11.36,2.3c-3.41,1.43-6.52,3.57-9.19,6.24-2.68,2.68-4.75,5.72-6.25,9.22-1.48,3.55-2.23,7.34-2.23,11.3s.75,7.71,2.23,11.27c1.5,3.5,3.58,6.63,6.25,9.29,2.68,2.65,5.78,4.74,9.19,6.15,3.64,1.56,7.43,2.3,11.36,2.3s7.74-.74,11.3-2.3c3.5-1.41,6.54-3.5,9.22-6.15,2.65-2.66,4.82-5.79,6.23-9.29,1.49-3.57,2.29-7.34,2.29-11.27s-.8-7.74-2.29-11.3ZM1430.49,113.14c-1.2,2.74-2.83,5.27-4.98,7.43-2.14,2.08-4.59,3.79-7.36,4.89-2.89,1.26-5.94,1.85-9.07,1.85s-6.23-.59-9.06-1.85c-2.73-1.1-5.27-2.81-7.42-4.89-2.08-2.16-3.79-4.69-4.98-7.43-1.18-2.81-1.78-5.94-1.78-9.04s.6-6.18,1.78-9.08c1.19-2.73,2.9-5.18,4.98-7.34,2.15-2.16,4.69-3.87,7.42-4.98,2.83-1.25,5.87-1.85,9.06-1.85s6.18.6,9.07,1.85c2.76,1.11,5.22,2.81,7.36,4.98,2.15,2.16,3.78,4.62,4.98,7.34,1.28,2.9,1.85,5.95,1.85,9.08s-.58,6.14-1.85,9.04Z"/>
    <path class="st0" d="M1411.5,101.38c-3.84-.8-8.48-1.06-8.48-4.84,0-2.78,2.45-4.64,5.77-4.64,3.78,0,5.77,1.99,6.36,3.84l5.63-1.52c-1.19-4.97-6.03-7.76-11.47-7.76-7.29,0-12.4,4.37-12.4,10.54,0,4.97,2.72,8.02,9.01,9.41,4.64,1.06,10.27,1.06,10.27,4.97,0,2.98-2.45,4.77-6.83,4.77-5.43,0-7.22-2.39-7.75-4.11l-5.9,1.99c1.33,5.04,6.89,7.69,13.52,7.69,8.95,0,13.19-4.97,13.19-10.94,0-5.04-2.72-7.69-10.94-9.41Z"/>
  </g>
  <g>
    <path class="st0" d="M534.81,391.13v-241.41h19.82l.71,36.81c8.14-20.18,29.38-41.06,65.48-41.06,47.43,0,77.87,36.1,77.87,91.33v7.08c0,55.22-30.44,91.33-78.23,91.33-34.69,0-55.22-19.47-64.42-38.94v94.87h-21.24ZM676.75,243.88v-7.08c0-45.31-21.24-72.56-59.11-72.56-40,0-62.3,27.26-62.3,72.56v7.08c0,45.31,22.65,72.56,61.95,72.56s59.47-27.61,59.47-72.56Z"/>
    <path class="st0" d="M762.05,69.02v261.94h-28.32V69.02h28.32Z"/>
    <path class="st0" d="M801.34,265.83v-117.17h39.29v109.73c0,27.96,10.27,44.6,36.46,44.6s42.83-20.53,42.83-53.1v-101.24h39.29v182.3h-37.88l-.71-27.61c-10.62,17.7-30.09,32.21-56.28,32.21-42.48,0-63.01-26.9-63.01-69.73Z"/>
    <path class="st0" d="M988.24,272.91h47.43c2.83,18.05,16.64,27.26,36.81,27.26,18.76,0,31.5-7.08,31.5-20.18,0-11.33-8.5-18.05-41.42-23.72-46.72-7.79-68.32-22.65-68.32-55.57s31.5-56.99,76.1-56.99c47.08,0,75.75,21.59,78.58,59.11h-46.37c-2.12-15.93-14.51-24.42-32.92-24.42-16.99,0-27.96,7.08-27.96,19.11,0,11.33,9.2,17.34,40.35,22.3,49.56,7.79,70.44,23.72,70.44,55.57,0,36.11-31.15,60.18-80.35,60.18s-80.71-23.01-83.89-62.65Z"/>
    <path class="st0" d="M1173.71,252.02h58.05c1.42,23.36,14.16,36.81,38.58,36.81,23.01,0,36.11-12.74,36.11-32.21v-2.83c0-20.18-13.1-32.21-36.81-32.21h-24.07v-42.48h24.07c20.53,0,32.92-9.91,32.92-27.61v-2.83c0-16.64-12.04-27.96-31.86-27.96-22.65,0-35.04,12.39-36.11,35.75h-55.22c2.12-50.26,41.06-81.41,91.68-81.41s87.43,27.26,87.43,68.67v3.19c0,24.07-15.22,43.89-37.88,52.39,26.55,7.43,47.08,28.32,47.08,58.76v3.54c0,44.96-38.23,73.98-96.63,73.98s-96.63-32.21-97.34-83.54Z"/>
  </g>
</svg>