<?xml version="1.0" encoding="UTF-8" standalone="no"?>
<svg
   xmlns:dc="http://purl.org/dc/elements/1.1/"
   xmlns:cc="http://creativecommons.org/ns#"
   xmlns:rdf="http://www.w3.org/1999/02/22-rdf-syntax-ns#"
   xmlns:svg="http://www.w3.org/2000/svg"
   xmlns="http://www.w3.org/2000/svg"
   xmlns:sodipodi="http://sodipodi.sourceforge.net/DTD/sodipodi-0.dtd"
   xmlns:inkscape="http://www.inkscape.org/namespaces/inkscape"
   inkscape:version="1.0 (4035a4f, 2020-05-01)"
   sodipodi:docname="Logo Stade Poitevin FC - 2021.svg"
   version="1.1"
   width="700"
   height="700"
   id="svg922"
   viewBox="0 0 699.99999 700">
  <sodipodi:namedview
     inkscape:current-layer="svg922"
     inkscape:window-maximized="0"
     inkscape:window-y="25"
     inkscape:window-x="0"
     inkscape:cy="372.42488"
     inkscape:cx="159.82571"
     inkscape:zoom="0.35860415"
     showgrid="false"
     id="namedview902"
     inkscape:window-height="756"
     inkscape:window-width="1440"
     inkscape:pageshadow="2"
     inkscape:pageopacity="0"
     guidetolerance="10"
     gridtolerance="10"
     objecttolerance="10"
     borderopacity="1"
     bordercolor="#666666"
     pagecolor="#ffffff"
     inkscape:document-rotation="0" />
  <metadata
     id="metadata928">
    <rdf:RDF>
      <cc:Work
         rdf:about="">
        <dc:format>image/svg+xml</dc:format>
        <dc:type
           rdf:resource="http://purl.org/dc/dcmitype/StillImage" />
        <dc:title />
      </cc:Work>
    </rdf:RDF>
  </metadata>
  <defs
     id="defs926">
    <rect
       x="219.85915"
       y="320.42255"
       width="162.48265"
       height="85.030586"
       id="rect1509" />
  </defs>
  <g
     transform="matrix(1.0539985,0,0,1.0539985,-18.514741,-18.899472)"
     id="g1109">
    <circle
       style="fill:#2c2c2c;fill-opacity:1;fill-rule:evenodd;stroke-width:3.10166"
       id="path982"
       cx="349.63498"
       cy="350"
       r="332.06879" />
    <circle
       r="240"
       cy="350"
       cx="349.63498"
       id="circle990"
       style="fill:#ffffff;fill-rule:evenodd;stroke-width:2.2417" />
    <circle
       style="fill:#fdb027;fill-opacity:1;fill-rule:evenodd;stroke-width:2.1483"
       id="circle988"
       cx="349.63498"
       cy="350"
       r="230" />
    <circle
       r="225"
       cy="350"
       cx="349.63498"
       id="circle984"
       style="fill:#2c2c2c;fill-opacity:1;fill-rule:evenodd;stroke-width:2.1016" />
  </g>
  <g
     transform="matrix(1.0539985,0,0,1.0539985,-18.514741,-18.899472)"
     id="g1103">
    <path
       style="fill:#2c2c2c;fill-opacity:1;stroke-width:0.729927"
       d="m 189.57859,170.38672 c -7.2239,0.136 -14.02684,1.68949 -14.05859,14.58008 0.23422,26.16874 0.37871,80.03824 0.38477,125.61718 0.009,64.38919 0.29452,106.06286 0.76367,111.31446 2.34509,26.25047 9.42094,54.04101 21.32031,83.72656 0.83784,2.09017 1.80315,3.62701 2.14453,3.41602 0.34139,-0.21098 0.46064,-0.64418 0.26367,-0.9629 -0.19697,-0.31869 -0.0385,-5.06817 0.35352,-10.55468 0.49178,-6.88145 1.005,-10.54044 1.85547,-14.83399 0.42041,-2.22091 0.9078,-4.41424 1.42773,-6.5957 17.80172,30.67606 38.26836,51.18225 61.4668,69.74219 23.09676,18.4786 50.26943,32.92277 78.52344,40.62695 3.8117,1.1788 4.06127,1.00289 8.85937,0 28.25372,-7.70418 55.42473,-22.14835 78.52149,-40.62695 23.32021,-18.65736 43.88094,-39.28557 61.74804,-70.23047 0.0722,0.3074 0.13839,0.61263 0.21289,0.91992 l 2.34571,9.67969 c 1.155,7.16208 2.03816,15.626 2.07226,21.78711 0.016,2.87491 0.28817,4.43906 0.69727,4.01562 0.8479,-0.87775 7.78825,-19.32188 11.24805,-29.89062 4.5778,-13.9841 8.5064,-30.55455 11.1621,-47.08008 0.9366,-5.82816 1.57908,-23.9344 2.17188,-113.50391 V 188.30859 c -0.019,-16.18659 -7.43275,-17.30162 -19.75195,-17.92187 H 192.68211 c -1.03064,-0.009 -2.07151,-0.0194 -3.10352,0 z"
       id="path1023" />
    <g
       id="g1497"
       style="fill:#4e4e4e;fill-opacity:1">
      <path
         d="m 428.47266,457.16406 -2.68946,14.97852 -6.63672,12.48828 c 6.80551,-3.88241 13.23704,-8.24227 19.75977,-11.10352 10.02821,-4.19704 30.89179,-4.36253 52.76758,0.79688 l 3.25586,-5.52149 -8.38477,-17.53125 c -19.94269,-3.97982 -38.40293,-3.60952 -47.63867,0.25586 -3.49284,1.53217 -6.94147,3.53104 -10.43359,5.63672 z"
         style="fill:#4e4e4e;fill-opacity:1;stroke:none;stroke-width:1px;stroke-linecap:butt;stroke-linejoin:miter;stroke-opacity:1"
         id="path1465" />
      <path
         d="m 207.27734,460.86328 -3.4082,9.88867 9.84766,15.47461 c 6.75836,3.11738 15.17852,5.76535 24.89648,5.58789 18.38367,-0.3357 25.02823,-3.17288 46.16992,-17.25586 0.11911,-0.0793 0.24014,-0.13491 0.35938,-0.21289 -0.25094,-0.63223 -0.25391,-0.61095 -0.53125,-1.33203 -1.08929,-2.83216 -2.26667,-6.09893 -2.61524,-7.84179 -0.43851,-2.19258 -1.43078,-5.69088 -2.41211,-9.31836 -16.8175,10.8543 -24.35046,13.65743 -40.9707,13.96093 -13.15219,0.24017 -24.00448,-4.66313 -31.33594,-8.95117 z"
         style="fill:#4e4e4e;fill-opacity:1;stroke:none;stroke-width:1px;stroke-linecap:butt;stroke-linejoin:miter;stroke-opacity:1"
         id="path1480" />
      <path
         d="m 292.24023,448.50586 3.52539,8.30078 7.61133,10.3125 c 15.5642,-2.78904 31.38528,2.22184 45.70117,10.22266 6.6616,3.723 11.0326,6.34257 15.36524,8.50586 l 17.24414,-8.47657 5.18945,-7.28515 c -18.48616,-2.51217 -22.2329,-6.04473 -37.79883,-14.74414 -10.98677,-6.14025 -22.86197,-10.61008 -34.82617,-11.09571 -1.70917,-0.0694 -3.4204,-0.057 -5.13086,0.043 -5.66228,0.33095 -11.31425,1.71201 -16.88086,4.2168 z"
         style="fill:#4e4e4e;fill-opacity:1;stroke:none;stroke-width:1px;stroke-linecap:butt;stroke-linejoin:miter;stroke-opacity:1"
         id="path1474" />
      <path
         d="m 312.39258,511.49219 c -11.28363,-0.76615 -22.62298,1.63265 -33.3418,8.94726 -10.65871,7.27363 -17.68634,11.65996 -24.39453,14.34766 l 17.25195,12.65039 c 2.501,-1.61894 4.69883,-2.96093 7.70118,-5.00977 21.43761,-14.62923 45.35512,-9.59774 66.35156,1.09766 16.98344,8.6512 20.11,12.0639 41.55859,14.05273 21.44857,1.98884 35.64266,-13.24402 50.95117,-20.21874 0.40932,-0.17833 0.99472,-0.29266 1.43946,-0.45899 l 24.21679,-25.14844 c -11.06477,-0.12455 -20.46982,1.11627 -26.21484,3.61914 -15.30851,6.97471 -29.50259,22.2076 -50.95117,20.21875 -21.44858,-1.98884 -24.57517,-5.40154 -41.5586,-14.05273 -10.49822,-5.3477 -21.72613,-9.27878 -33.00976,-10.04492 z"
         style="fill:#4e4e4e;fill-opacity:1;stroke:none;stroke-width:1.01539px;stroke-linecap:butt;stroke-linejoin:miter;stroke-opacity:1"
         id="path1486" />
      <path
         id="path1437"
         style="fill:#4e4e4e;fill-opacity:1;stroke:none;stroke-width:0.967912px;stroke-linecap:butt;stroke-linejoin:miter;stroke-opacity:1"
         d="m 278.28125,418.64258 -9.70508,-10.63672 -2.34961,-5.1875 c -5.68716,2.08709 -11.29544,2.84092 -19.2539,2.99609 -2.86382,0.0558 -5.57054,-0.24162 -8.19922,-0.66992 v 11.75 l -8.82032,8.03906 c 5.03544,1.7812 10.75777,3.00686 17.01954,2.88477 13.17023,-0.25679 20.00788,-2.07963 31.30859,-9.17578 z" />
      <path
         d="m 435.10156,409.35742 -4.08984,-9.54297 -3.76172,-8.23437 c -2.77241,1.69255 -5.56036,3.50179 -8.39453,5.31054 l 4.3125,9.89454 2.65039,7.75 c 2.93104,-1.85027 5.83524,-3.63152 8.76953,-5.00586 0.14929,-0.0667 0.35915,-0.10734 0.51367,-0.17188 z"
         style="fill:#4e4e4e;fill-opacity:1;stroke:none;stroke-width:0.967912px;stroke-linecap:butt;stroke-linejoin:miter;stroke-opacity:1"
         id="path1454" />
      <path
         d="m 441.67773,385.49805 -0.72656,13.05859 -2.79101,9.7793 c 5.14728,-1.44247 12.04613,-2.06961 19.9707,-1.77539 l -2.36328,-22.10743 c -0.30696,-0.004 -0.66134,-0.0552 -0.96485,-0.0566 -4.94046,-0.0233 -9.33242,0.38375 -13.125,1.10157 z"
         style="fill:#4e4e4e;fill-opacity:1;stroke:none;stroke-width:0.967912px;stroke-linecap:butt;stroke-linejoin:miter;stroke-opacity:1"
         id="path1460" />
      <path
         d="m 315.85938,380.25977 1.6914,12.23437 -3.49219,10.5957 c 11.47614,0.36725 22.77342,5.67709 33.94532,12.34375 15.22176,9.08337 20.42157,10.48543 39.85156,13.01953 1.70128,0.22189 3.29908,0.15862 4.91015,0.13086 l -2.5371,-9.07617 -7.88672,-14.05469 c -14.11122,-2.49207 -18.43958,-6.08189 -31.89844,-14.11328 -10.29137,-6.14122 -21.41421,-10.61192 -32.62109,-11.09765 -0.6538,-0.0283 -1.30853,0.0182 -1.96289,0.0176 z"
         style="fill:#4e4e4e;fill-opacity:1;stroke:none;stroke-width:0.967912px;stroke-linecap:butt;stroke-linejoin:miter;stroke-opacity:1"
         id="path1451" />
    </g>
    <g
       id="g1383"
       style="fill:#ffffff">
      <path
         d="m 398.60369,279.5625 c -0.28078,0 -1.28478,3.3655 -2.23243,7.48047 -2.99332,12.99789 -2.11044,23.19815 2.3711,27.39648 2.4964,2.33865 5.75009,3.79973 8.47656,3.80469 l 2.47266,0.004 -0.5,-4.92774 c -0.73473,-7.25323 -2.3608,-12.83419 -5.64258,-19.36133 -1.60686,-3.19588 -3.26185,-7.74245 -3.67774,-10.10351 -0.41589,-2.36106 -0.98678,-4.29297 -1.26757,-4.29297 z m 0.5664,15.32812 c 1.47319,0 5.93946,12.92568 5.93946,17.18946 0,1.57273 -1.72437,1.28234 -3.47266,-0.58399 -0.84616,-0.90328 -1.89016,-2.56711 -2.31836,-3.69726 -0.92907,-2.4521 -1.04935,-12.90821 -0.14844,-12.90821 z"
         style="fill:#ffffff;stroke-width:0.729927"
         id="path1107" />
      <path
         id="path1105"
         d="m 374.59611,332.29927 c -2.27852,-2.87543 -8.99336,-9.37318 -20.78423,-20.11226 -5.85564,-5.33329 -7.49143,-7.3194 -9.61887,-11.67883 -2.09098,-4.28473 -4.47081,-13.39533 -3.71213,-14.21103 0.1019,-0.10956 2.94234,1.11031 6.3121,2.71081 7.08217,3.36375 16.92566,6.07385 20.86678,5.74501 2.57788,-0.21509 2.3114,-0.40143 -4.9122,-3.43497 -8.6537,-3.63411 -16.04724,-7.68793 -21.75876,-11.93015 -2.39152,-1.7763 -4.16328,-2.63661 -4.5773,-2.22259 -1.18864,1.18864 -1.59381,10.02707 -0.69857,15.23853 1.12084,6.52469 5.07894,14.51701 9.21056,18.59825 3.28427,3.24422 30.09235,23.80524 31.23285,23.95468 0.33483,0.0439 -0.36727,-1.15198 -1.56023,-2.65745 z"
         style="fill:#ffffff;stroke-width:0.729927" />
      <path
         id="path1103"
         d="m 427.69083,339.19733 c 0.10075,-5.9631 -4.12989,-9.33615 -6.84606,-5.45827 -1.87742,2.68039 -1.41854,4.00686 0.6982,2.01828 2.74359,-2.57746 3.62719,-1.12867 3.70275,6.07124 0.0345,3.2899 0.14416,6.63857 0.24365,7.44149 0.24958,2.01429 2.14365,-6.65201 2.20146,-10.07274 z"
         style="fill:#ffffff;stroke-width:0.729927" />
      <path
         d="m 360.05681,190.20508 c -0.24154,-0.004 -0.39059,0.008 -0.42383,0.041 -0.13296,0.13297 0.8398,2.46562 2.16407,5.18164 2.83814,5.82091 5.35742,12.96562 5.35742,15.20118 0,1.57717 -0.0754,1.58579 -11.86133,1.28125 l -11.86133,-0.30664 -7.66406,-3.89649 c -9.44843,-4.80481 -14.19914,-6.25381 -20.38867,-6.2207 -4.37821,0.0234 -13.51476,1.51476 -14.3418,2.34179 -0.1889,0.1889 2.26594,2.056 5.45312,4.14844 5.53386,3.63309 13.94727,11.53117 13.94727,13.0918 0,0.94248 -8.6024,8.25513 -13.66602,11.61719 -2.90635,1.9297 -5.79511,2.99746 -11.54687,4.26562 -8.6348,1.90382 -11.64854,3.60088 -17.50195,9.85938 -7.1286,7.62194 -11.29883,14.44765 -11.29883,18.49414 0,2.33375 0.60338,2.31255 7.29883,-0.26563 3.01095,-1.1594 6.50259,-2.32497 7.75781,-2.58984 l 2.28125,-0.48242 0.36719,13.35937 c 0.43061,15.6596 1.63878,21.3688 6.6875,31.60742 2.90973,5.90081 8.16817,13.30253 8.91797,12.55274 0.15987,-0.15988 -0.86377,-2.20848 -2.2754,-4.55274 -6.65326,-11.04882 -9.86718,-26.14394 -9.86718,-46.3457 0,-6.87189 -0.2331,-8.86394 -1.14649,-9.77734 -1.39487,-1.39487 -1.73468,-1.3977 -7.24804,-0.0664 -2.40876,0.58162 -4.64814,1.06968 -4.97657,1.08398 -1.74672,0.0761 9.23701,-12.24351 12.97657,-14.55468 1.32885,-0.82127 5.85071,-2.2506 10.04687,-3.17578 8.37867,-1.84735 12.8969,-4.35385 22.52734,-12.49805 6.80506,-5.75486 7.18126,-6.67046 4.7754,-11.58789 -1.06554,-2.17789 -3.6135,-5.5292 -5.66407,-7.44727 l -3.72851,-3.48828 4.2832,0.42774 c 3.26011,0.3245 6.38026,1.48338 13.04492,4.84765 l 8.75781,4.42188 14.35352,0.73633 c 7.8944,0.40567 15.0396,0.73828 15.87695,0.73828 1.33569,0 1.52149,-0.4381 1.52149,-3.56836 0,-1.9624 -0.82057,-6.40187 -1.82422,-9.86524 -1.00365,-3.46339 -1.82422,-6.467 -1.82422,-6.67578 0,-0.78215 3.24006,1.39773 6.37891,4.29102 4.02624,3.71126 7.47164,10.43 10.39648,20.27539 1.23077,4.14293 2.71591,8.20186 3.29883,9.01953 0.58292,0.81767 4.34282,4.93507 8.35547,9.15039 l 7.29492,7.66602 -6.00195,0.36328 -6,0.36523 -5.47461,-5.53515 c -6.25618,-6.32675 -11.13738,-9.32794 -20.11133,-12.36133 -7.13267,-2.411 -7.13524,-2.40785 -2.61133,4.2539 3.3473,4.92911 10.31115,19.18846 12.1875,24.95703 0.71821,2.20803 1.51532,6.15028 1.77148,8.75977 0.45718,4.65711 0.48187,4.70413 1.4043,2.55469 2.05744,-4.79418 -0.19026,-20.08255 -4.05078,-27.55469 -0.5704,-1.10402 -0.75936,-2.00781 -0.41992,-2.00781 1.08943,0 14.97743,12.71345 19.1289,17.51172 4.5435,5.25136 5.51169,4.68771 2.64649,-1.54297 -2.26665,-4.92908 -1.98654,-5.13715 7.53711,-5.58399 5.77048,-0.27073 7.72405,-0.0636 11.34961,1.20118 4.19204,1.46241 4.30137,1.46695 2.55469,0.10546 -1.00364,-0.78231 -2.72803,-1.80157 -3.83204,-2.26562 -1.81574,-0.76321 -2.00967,-1.20159 -2.02343,-4.58789 -0.008,-2.05896 -0.44491,-5.79557 -0.97071,-8.30469 -0.52579,-2.50913 -0.72385,-4.5625 -0.43945,-4.5625 0.90153,0 8.40761,8.95073 11.29102,13.46484 4.31746,6.75917 4.78886,9.16197 5.47265,27.85743 0.46756,12.78347 0.9816,18.39826 2.11719,23.17968 0.8242,3.47032 1.85277,9.34528 2.28711,13.05664 1.32579,11.3287 2.07299,14.59603 3.74609,16.37696 0.87097,0.92711 1.96947,1.68554 2.43946,1.68554 1.30489,0 3.03616,2.31487 3.44726,4.60938 0.82328,4.59513 -2.70835,18.0192 -6.39648,24.3125 -3.56901,6.09007 -6.32436,6.68899 -13.05469,2.83789 -7.68707,-4.39854 -8.04854,-4.9159 -9.59375,-13.71875 -1.32782,-7.56436 -2.77399,-9.66261 -6.62109,-9.60352 -1.55768,0.024 -3.71527,0.30066 -4.79493,0.61524 l -1.96484,0.57226 1.41602,-3.72656 c 2.83358,-7.45737 1.20971,-12.80272 -5.25,-17.27929 -7.35943,-5.10013 -10.78631,-12.68176 -12.34571,-27.30665 -0.93619,-8.78022 -1.37609,-10.94921 -2.21484,-10.94921 -0.93712,0 -0.84529,17.76275 0.11914,23.04296 1.32878,7.27493 4.52844,12.94657 10.58789,18.76954 3.03227,2.91395 5.41016,5.81226 5.41016,6.5957 0,1.19505 -0.41184,1.04255 -2.83789,-1.0586 -1.56044,-1.35145 -4.22958,-3.57914 -5.93164,-4.94921 -4.22495,-3.40088 -7.73993,-10.91246 -8.74219,-18.67774 -0.41453,-3.21168 -1.10473,-8.44281 -1.53321,-11.62695 -0.874,-6.49479 -4.62033,-17.66347 -7.66992,-22.86719 -3.25054,-5.54664 -8.10681,-10.19916 -13.33593,-12.77344 -4.27644,-2.1053 -5.488,-2.36422 -11.02735,-2.36523 -5.16831,-7.3e-4 -6.81558,0.30289 -9.72851,1.79102 -11.1376,5.68986 -16.11118,19.89597 -12.27539,35.06445 4.79654,18.96778 16.17421,32.19697 44.25,51.45508 4.0146,2.75374 9.76248,6.86062 12.77343,9.12695 7.26414,5.46771 7.8796,5.79237 6.00391,3.1582 -2.44748,-3.43716 -12.80418,-12.98052 -22.83008,-21.03515 -17.81905,-14.31551 -26.76689,-24.10423 -32.02734,-35.03711 -3.56263,-7.40429 -4.66751,-12.44492 -4.33008,-19.7461 0.47936,-10.37235 5.75617,-17.49772 14.31836,-19.33398 4.60525,-0.98765 10.99517,0.4141 15.51367,3.4043 7.86504,5.20484 13.67585,18.55436 15.72266,36.11718 1.12421,9.64643 2.49636,14.64953 5.68945,20.74414 2.49913,4.77006 3.77217,6.17381 8.68164,9.58008 2.2557,1.56504 4.80301,3.73648 5.66016,4.82617 l 1.55859,1.98243 -2.87695,5.84765 c -1.72662,3.51133 -2.5203,5.84961 -1.98633,5.84961 0.48917,0 2.50192,-0.49004 4.47266,-1.08789 1.97073,-0.59784 3.94259,-1.0894 4.38085,-1.09375 0.43827,-0.004 1.40493,1.99945 2.14844,4.45508 1.49351,4.93275 4.59729,8.67578 7.19727,8.67578 0.90047,0 2.76357,1.01006 4.14062,2.24609 2.83484,2.54454 10.61962,7.07905 13.63672,7.94336 2.94535,0.84374 6.05851,0.11125 8.86328,-2.08398 7.64696,-5.98509 14.31718,-29.19513 10.69727,-37.22266 -0.79983,-1.77369 -2.29393,-3.3843 -4.05664,-4.375 -3.08767,-1.73537 -3.06657,-1.67476 -4.37891,-13.74023 -0.40205,-3.69635 -1.40617,-9.44425 -2.23047,-12.77344 -1.13939,-4.6017 -1.64629,-9.99112 -2.11523,-22.47656 -0.33926,-9.03285 -1.01806,-18.22947 -1.50781,-20.4375 -1.71841,-7.74747 -6.93189,-15.82713 -16.07032,-24.9043 -5.89416,-5.85464 -18.84506,-16.31704 -19.44922,-15.71289 -0.14706,0.14708 1.43682,3.16253 3.51954,6.70117 3.82537,6.49946 6.67268,13.59659 7.60156,18.95117 l 0.50586,2.91993 -7.35938,-7.66407 -7.36132,-7.66406 -2.66211,-8.39062 c -1.46419,-4.61495 -3.76238,-10.57322 -5.10547,-13.24024 -4.65756,-9.24868 -12.29738,-15.08428 -21.65625,-16.54297 -1.72733,-0.26922 -3.27929,-0.44038 -4.00391,-0.45312 z m 46.35352,152.78515 c 0.19224,-0.0454 0.46564,0.1088 0.82031,0.48829 0.81596,0.87306 2.20165,9.07617 1.5332,9.07617 -0.27695,0 -1.09998,-1.97344 -1.83008,-4.38477 -0.93942,-3.10272 -1.10017,-5.04335 -0.52343,-5.17969 z"
         style="fill:#ffffff;stroke-width:0.729927"
         id="path1099" />
      <path
         id="path1097"
         d="m 438.1763,414.9635 c 3.90654,-9.96414 5.16807,-17.20426 5.2145,-29.927 0.022,-6.0219 -0.25915,-12.26278 -0.62472,-13.86862 -0.59962,-2.634 -0.78461,-1.91975 -1.89041,7.29927 -1.39801,11.65513 -4.26147,25.91241 -5.20429,25.91241 -0.34913,0 -0.64079,-0.41058 -0.64814,-0.91241 -0.007,-0.50182 -1.10991,-3.57411 -2.45015,-6.8273 -4.33203,-10.5152 -12.17337,-21.08947 -19.25182,-25.96159 -1.7062,-1.17439 -3.10219,-1.9602 -3.10219,-1.74625 0,0.21395 1.82843,2.75548 4.06318,5.64782 5.32551,6.89262 9.31561,13.80272 12.42794,21.52284 3.29178,8.16526 6.86654,20.25043 6.86654,23.21367 0,2.48299 0.66275,3.70082 1.51078,2.77612 0.28227,-0.30779 1.67221,-3.51582 3.08878,-7.12896 z"
         style="fill:#ffffff;stroke-width:0.729927" />
      <path
         id="path1095"
         d="m 372.09962,520.79047 c 29.67666,-5.62956 51.17018,-26.57221 57.75959,-56.27921 6.68506,-30.13825 -2.99362,-67.72568 -22.58973,-87.72791 -2.48053,-2.53193 -4.67573,-4.43782 -4.87822,-4.23534 -0.2025,0.2025 1.26228,2.27408 3.25504,4.60352 7.24531,8.46935 12.5426,18.16135 16.61674,30.40225 3.22811,9.69899 4.7471,18.38813 5.25099,30.03746 1.63496,37.7985 -18.21979,66.99128 -51.4312,75.62015 -7.3455,1.90848 -21.96079,2.61216 -30.14219,1.45125 -32.3908,-4.59611 -57.70043,-27.10087 -63.82498,-56.75174 -2.6911,-13.02844 -2.17751,-23.74559 1.86892,-38.99924 5.1551,-19.43293 5.79657,-22.13717 5.79657,-24.43663 0,-3.87321 1.23007,-3.54854 1.76251,0.46521 0.55865,4.21128 -0.33441,11.59199 -2.88705,23.86004 -2.10432,10.11339 -2.34573,20.07906 -0.64714,26.7148 4.34225,16.96351 19.95365,33.58593 38.39423,40.88069 8.9272,3.53143 13.49255,4.39589 23.23145,4.39889 15.56601,0.005 26.64406,-4.2465 35.48407,-13.61738 5.51465,-5.84583 8.28854,-11.14819 10.587,-20.23734 2.17902,-8.61685 1.69102,-22.23055 -1.13708,-31.72144 -2.24354,-7.52916 -6.55085,-16.17892 -11.24624,-22.58422 -7.17391,-9.78641 -21.45026,-22.97008 -36.97242,-34.14264 -4.81752,-3.46755 -10.82631,-8.18391 -13.35288,-10.48079 -2.52656,-2.29687 -4.76065,-4.00924 -4.96464,-3.80525 -0.73084,0.73085 10.45715,11.36884 19.41241,18.4581 13.87597,10.98465 28.73143,26.14115 33.94763,34.63557 7.82655,12.74528 11.27243,23.56546 11.29516,35.46718 0.0341,17.86194 -8.50636,32.21464 -22.56939,37.92896 -22.6392,9.19913 -50.52135,1.32998 -66.90701,-18.88312 -8.14766,-10.05082 -12.7267,-22.12799 -10.4725,-27.62109 0.55058,-1.34165 5.04506,-6.52298 9.98773,-11.51406 13.82931,-13.96475 17.06193,-19.59192 17.57379,-30.5915 0.35973,-7.73042 -0.74204,-12.91598 -4.65733,-21.91998 -2.25088,-5.17635 -12.59579,-21.96445 -13.54543,-21.98202 -0.25127,-0.004 0.35932,2.2087 1.35687,4.91855 4.13538,11.2338 4.57665,13.67406 3.84399,21.25785 -0.88478,9.15849 -1.76299,13.57893 -3.50451,17.63987 -1.47014,3.42813 -2.83585,8.6774 -2.06939,7.95395 0.47918,-0.45228 3.52085,-5.96923 5.80983,-10.5378 0.80458,-1.60584 2.06432,-5.18977 2.79942,-7.96429 0.73511,-2.77452 1.46226,-5.17028 1.6159,-5.32392 0.15364,-0.15364 0.85482,1.84668 1.55819,4.44514 1.87638,6.93189 1.28105,15.55806 -1.44148,20.88686 -2.76354,5.40909 -7.1574,10.93995 -13.91694,17.51825 -4.47813,4.35805 -5.54206,5.10232 -5.21719,3.64964 3.39484,-15.18004 3.89167,-27.78505 1.35222,-34.30657 -1.34901,-3.46436 -6.34578,-10.81053 -7.42349,-10.9139 -0.20073,-0.0193 -0.37929,3.98872 -0.3968,8.9066 -0.0217,6.07973 -0.43665,10.46015 -1.29664,13.68613 -2.01375,7.55393 -4.33197,14.91133 -4.90646,15.5718 -1.18706,1.36473 -9.44892,-9.4961 -11.60272,-15.25264 -1.80664,-4.82868 -2.00533,-13.33935 -0.44801,-19.19028 0.57205,-2.14919 1.17429,-4.04184 1.33832,-4.20587 0.16403,-0.16402 1.03142,2.47717 1.92754,5.86933 0.89611,3.39215 2.67135,7.9194 3.94499,10.06057 1.27363,2.14116 2.80839,4.84039 3.41058,5.99829 1.75938,3.38298 1.72739,0.41691 -0.0435,-4.0338 -2.81796,-7.08227 -3.59827,-10.38935 -4.47226,-18.95427 -0.94303,-9.24136 -1.09448,-8.47513 4.42029,-22.36417 2.27545,-5.73073 0.43384,-4.13595 -5.47374,4.74011 -8.58259,12.89521 -11.94903,22.11573 -11.94903,32.72777 0,10.77642 3.70127,18.79969 12.75373,27.6463 l 4.48147,4.37956 -0.91084,4.37956 c -4.35488,20.93954 0.40481,44.28313 12.50171,61.31387 3.86119,5.43602 13.92007,15.1606 19.84039,19.18102 10.12467,6.87553 23.63241,12.00466 35.64009,13.53318 5.93563,0.75558 21.12531,0.40573 26.47907,-0.60986 z"
         style="fill:#ffffff;stroke-width:0.729927" />
      <path
         sodipodi:nodetypes="cccssssscccccccsssssssscsccccssssssssssssssssscsssssssssssssccccccccccsssssssscssssssccccscsssscccscccssssccccc"
         d="m 189.57859,170.38672 c -7.22391,0.136 -14.02684,1.68949 -14.05859,14.58008 0.23422,26.16874 0.37871,80.03824 0.38477,125.61718 0.009,64.38919 0.29452,106.06286 0.76367,111.31446 2.34509,26.25047 9.42094,54.04101 21.32031,83.72656 0.83784,2.09017 1.80315,3.62701 2.14453,3.41602 0.34139,-0.21098 0.46064,-0.64418 0.26367,-0.9629 -0.19697,-0.31869 -0.0385,-5.06817 0.35352,-10.55468 0.49178,-6.88145 1.005,-10.54044 1.85547,-14.83399 1.22781,-6.48616 2.84829,-12.78977 5.04687,-18.99414 5.80963,-16.38202 16.03327,-31.62967 28.29688,-42.20508 l 4.92773,-4.24804 0.0117,-12.08789 c 0.0182,-16.50167 2.4244,-31.99625 6.3711,-41.04688 l 1.33789,-3.07031 -0.0195,12.72851 c -0.0172,11.13322 0.19026,13.4604 1.6543,18.54493 1.60952,5.58982 5.83679,14.63784 6.51953,13.95507 0.18139,-0.18137 -0.33283,-2.2441 -1.14257,-4.58398 -4.85046,-14.01577 -5.04555,-30.9086 -0.57227,-49.41211 0.9326,-3.85767 1.47906,-7.01367 1.21484,-7.01367 -0.81979,0 -5.56861,5.3085 -7.83398,8.75781 -6.86325,10.45025 -11.19141,30.22002 -11.19141,51.125 v 9.44336 l -7.52929,7.5293 c -11.15529,11.15529 -20.29241,25.95975 -25.99805,41.65429 -2.61939,7.36942 -4.91941,15.86826 -6.43164,22.73047 l -0.64063,2.91993 -2.31054,-6.93555 c -2.46709,-7.40441 -6.5138,-22.40418 -8.46875,-31.38672 -6.03868,-27.7462 -6.33054,-61.0859 -0.75196,-85.95898 4.91219,-21.90188 15.15524,-44.71734 27.60742,-61.48633 1.63964,-2.20803 3.15653,-4.17818 3.36915,-4.37891 0.21261,-0.20073 2.07241,-2.49988 4.13281,-5.10937 2.06041,-2.60949 7.20568,-8.12254 11.43554,-12.25 4.22992,-4.12746 7.9011,-8.16649 8.15821,-8.97657 0.78,-2.45755 -1.56349,-4.89932 -7.33203,-7.63671 -3.00267,-1.4249 -5.45899,-2.84054 -5.45899,-3.14649 0,-1.56644 22.80549,-11.06884 25.78125,-10.74219 2.58654,0.28394 4.14453,1.69474 4.14453,3.75 0,0.93199 -1.16652,4.58582 -2.59375,8.1211 -3.06682,7.59659 -2.97743,10.88817 0.49805,18.25195 3.54044,7.50146 9.14314,10.9455 16.22656,9.97461 3.25882,-0.44667 3.38869,-0.39307 3.38867,1.37891 0,6.24998 7.67644,25.11977 12.9004,31.70898 4.97211,6.27154 12.07599,12.04056 13.25588,10.76563 0.2668,-0.28823 -0.01,-0.68086 -0.6094,-0.87305 -2.13356,-0.68094 -10.05672,-9.60416 -12.57812,-14.16602 -5.1404,-9.30019 -8.94538,-21.81692 -9.4668,-31.13476 -0.20875,-3.73038 -0.288,-3.86077 -2.04297,-3.43555 -5.22243,1.26535 -9.03992,1.29147 -11.29297,0.0781 -3.00218,-1.61678 -5.94979,-6.23633 -7.01367,-10.99023 -0.8112,-3.62484 -0.72798,-4.09866 1.86914,-10.66601 3.30956,-8.36887 3.26705,-11.98686 -0.18164,-15.43555 -3.45344,-3.45344 -7.27429,-3.52334 -16.01563,-0.29492 -17.20276,6.35346 -20.84797,8.47481 -22.10937,12.87304 -0.85874,2.99423 1.57359,5.80846 7.31055,8.45703 2.40255,1.10917 4.36718,2.21221 4.36718,2.45118 0,0.23897 -2.98014,3.38351 -6.62304,6.98828 -12.28209,12.15351 -22.7904,26.44415 -30.89258,42.01172 -5.18424,9.96102 -7.28645,15.07452 -11.38281,27.68164 l -2.72657,8.39453 V 185.74219 c -0.0698,-8.93156 3.81205,-9.35065 11.95899,-9.39844 h 310.16211 c 14.6995,0.20087 13.3768,5.08954 13.6699,16.88477 v 163.33984 c -1.6396,-7.08746 -7.101,-21.9107 -11.2929,-30.65625 -7.9366,-16.55632 -20.9467,-34.60951 -34.0665,-47.26953 l -6.625,-6.39453 4.8946,-2.4668 c 6.151,-3.10031 7.6233,-4.67606 7.3183,-7.82813 -0.3425,-3.53944 -5.5338,-7.10449 -16.9941,-11.66992 -13.8302,-5.50951 -18.3639,-5.50566 -22.0859,0.0176 -2.2675,3.36474 -2.1107,6.63592 0.6445,13.48438 1.9619,4.87665 2.1955,6.07731 1.5273,7.84765 -0.701,1.85704 -0.6297,2.08985 0.6407,2.08985 1.7634,0 5.0117,-3.13646 5.0117,-4.83789 0,-0.6893 -0.8649,-3.4137 -1.9239,-6.05469 -3.5218,-8.78201 -2.9189,-11.4355 2.5469,-11.18946 4.0386,0.18182 23.2805,8.3311 24.5606,10.40235 0.2712,0.43886 -1.274,1.53622 -3.6387,2.58203 -7.3243,3.23911 -9.9992,6.11722 -8.4219,9.06445 0.3508,0.65556 3.8144,4.29779 7.6973,8.09375 19.8395,19.3954 33.8934,41.8802 42.1836,67.48633 12.2143,37.7268 10.8151,82.78257 -3.9903,128.51563 l -3.0546,9.4414 -0.6289,-3.28515 c -1.3096,-5.99685 -3.1329,-12.07348 -5.0411,-17.88282 -5.8717,-17.76389 -13.9154,-31.11571 -26.3398,-43.72265 l -7.8418,-7.95703 -0.4356,-4.45313 c -1.6648,-17.0242 -5.8196,-37.22556 -9.4355,-45.875 -0.7036,-1.68314 -1.2015,-2.574 -1.4082,-2.64453 -0.2067,-0.0705 -0.1229,0.67901 0.3379,2.2793 2.4893,8.64486 5.7841,36.25779 5.7851,48.48437 v 4.98242 l 5.7911,5.29883 c 6.9756,6.37985 14.233,15.2817 18.8086,23.07031 2.3313,3.96845 6.1906,12.33218 8.2714,17.59133 1.6513,4.33 2.4587,8.88086 3.5572,13.41168 l 2.3471,9.68059 c 1.155,7.16208 2.0382,15.626 2.0723,21.78711 0.016,2.87491 0.2882,4.43906 0.6973,4.01562 0.8479,-0.87775 7.7882,-19.32188 11.248,-29.89062 4.5778,-13.9841 8.5064,-30.55455 11.1621,-47.08008 0.9366,-5.82816 1.5791,-23.9344 2.1719,-113.50391 V 188.30859 c -0.019,-16.18659 -7.4328,-17.30162 -19.752,-17.92187 H 192.68211 c -1.03064,-0.009 -2.07152,-0.0194 -3.10352,0 z"
         style="fill:#ffffff;stroke-width:0.729927"
         id="path1349" />
      <path
         sodipodi:nodetypes="ccsccsccscsc"
         d="m 205.7793,469.07227 -4.375,2.41992 c 18.4048,33.27252 39.75004,54.86598 64.0957,74.34375 23.09676,18.4786 50.26943,32.92277 78.52344,40.62695 3.8117,1.1788 4.06127,1.00289 8.85937,0 28.25372,-7.70418 55.42473,-22.14835 78.52149,-40.62695 24.34566,-19.47777 45.69285,-41.07123 64.09765,-74.34375 l -4.375,-2.41992 c -18.0574,32.64449 -38.7918,53.61502 -62.8457,72.85937 -23.44927,18.76063 -51.21923,33.27956 -79.82813,40.54297 -28.60889,-7.26341 -56.37885,-21.78234 -79.82812,-40.54297 -24.0539,-19.24435 -44.7883,-40.21488 -62.8457,-72.85937 z"
         style="color:#000000;font-style:normal;font-variant:normal;font-weight:normal;font-stretch:normal;font-size:medium;line-height:normal;font-family:sans-serif;font-variant-ligatures:normal;font-variant-position:normal;font-variant-caps:normal;font-variant-numeric:normal;font-variant-alternates:normal;font-variant-east-asian:normal;font-feature-settings:normal;font-variation-settings:normal;text-indent:0;text-align:start;text-decoration:none;text-decoration-line:none;text-decoration-style:solid;text-decoration-color:#000000;letter-spacing:normal;word-spacing:normal;text-transform:none;writing-mode:lr-tb;direction:ltr;text-orientation:mixed;dominant-baseline:auto;baseline-shift:baseline;text-anchor:start;white-space:normal;shape-padding:0;shape-margin:0;inline-size:0;clip-rule:nonzero;display:inline;overflow:visible;visibility:visible;opacity:1;isolation:auto;mix-blend-mode:normal;color-interpolation:sRGB;color-interpolation-filters:linearRGB;solid-color:#000000;solid-opacity:1;vector-effect:none;fill:#ffffff;fill-opacity:1;fill-rule:nonzero;stroke:none;stroke-width:5;stroke-linecap:butt;stroke-linejoin:miter;stroke-miterlimit:4;stroke-dasharray:none;stroke-dashoffset:0;stroke-opacity:1;color-rendering:auto;image-rendering:auto;shape-rendering:auto;text-rendering:auto;enable-background:accumulate;stop-color:#000000;stop-opacity:1"
         id="path1372" />
    </g>
  </g>
  <g
     transform="matrix(1.0539985,0,0,1.0539985,-17.85127,-18.899472)"
     style="fill:#fdb027;fill-opacity:1"
     id="g1530">
    <path
       id="path1513"
       style="font-style:normal;font-variant:normal;font-weight:bold;font-stretch:normal;font-size:25px;line-height:1.25;font-family:Futura;-inkscape-font-specification:'Futura Bold';letter-spacing:-1px;white-space:pre;shape-inside:url(#rect1509);fill:#fdb027;fill-opacity:1"
       d="m 326.084,547.89 h -2.75 v -4.15 h 7.65 v 18.85 h -4.9 z" />
    <path
       id="path1515"
       style="font-style:normal;font-variant:normal;font-weight:bold;font-stretch:normal;font-size:25px;line-height:1.25;font-family:Futura;-inkscape-font-specification:'Futura Bold';letter-spacing:-1px;white-space:pre;shape-inside:url(#rect1509);fill:#fdb027;fill-opacity:1"
       d="m 336.609,562.59 5.35,-6.15 h -0.1 q -0.7,0.425 -1.15,0.525 -0.45,0.075 -0.8,0.075 -1.375,0 -2.55,-0.525 -1.15,-0.525 -2,-1.425 -0.825,-0.925 -1.3,-2.15 -0.475,-1.225 -0.475,-2.625 0,-1.5 0.55,-2.775 0.55,-1.3 1.575,-2.25 1.05,-0.975 2.525,-1.525 1.475,-0.55 3.325,-0.55 1.875,0 3.35,0.55 1.475,0.55 2.5,1.5 1.05,0.95 1.6,2.225 0.55,1.25 0.55,2.675 0,1.6 -0.725,3.475 -0.7,1.85 -2.175,3.65 l -4.375,5.3 z m 8.1,-12.375 q 0,-0.65 -0.25,-1.2 -0.25,-0.575 -0.675,-1 -0.425,-0.425 -1,-0.675 -0.55,-0.25 -1.2,-0.25 -0.65,0 -1.225,0.25 -0.55,0.25 -0.975,0.675 -0.425,0.425 -0.675,1 -0.25,0.55 -0.25,1.2 0,0.65 0.25,1.225 0.25,0.55 0.675,0.975 0.425,0.425 0.975,0.675 0.575,0.25 1.225,0.25 0.65,0 1.2,-0.25 0.575,-0.25 1,-0.675 0.425,-0.425 0.675,-0.975 0.25,-0.575 0.25,-1.225 z" />
    <path
       id="path1517"
       style="font-style:normal;font-variant:normal;font-weight:bold;font-stretch:normal;font-size:25px;line-height:1.25;font-family:Futura;-inkscape-font-specification:'Futura Bold';letter-spacing:-1px;white-space:pre;shape-inside:url(#rect1509);fill:#fdb027;fill-opacity:1"
       d="m 364.851,562.59 h -15.175 l 4.675,-4.85 q 1.85,-1.925 2.9,-3.25 1.05,-1.35 1.55,-2.275 0.525,-0.925 0.65,-1.5 0.125,-0.575 0.125,-0.975 0,-0.425 -0.15,-0.825 -0.125,-0.4 -0.4,-0.7 -0.275,-0.325 -0.675,-0.5 -0.375,-0.2 -0.9,-0.2 -1,0 -1.575,0.65 -0.55,0.65 -0.55,1.625 0,0.275 0.075,0.8 h -5.35 q 0,-1.65 0.525,-3 0.55,-1.35 1.525,-2.325 0.975,-0.975 2.3,-1.5 1.35,-0.525 2.95,-0.525 1.575,0 2.9,0.5 1.35,0.5 2.325,1.4 0.975,0.9 1.525,2.15 0.55,1.225 0.55,2.675 0,1.55 -0.675,2.875 -0.65,1.3 -2.1,2.675 l -3.125,2.925 h 6.1 z" />
    <path
       id="path1519"
       style="font-style:normal;font-variant:normal;font-weight:bold;font-stretch:normal;font-size:25px;line-height:1.25;font-family:Futura;-inkscape-font-specification:'Futura Bold';letter-spacing:-1px;white-space:pre;shape-inside:url(#rect1509);fill:#fdb027;fill-opacity:1"
       d="m 369.777,547.89 h -2.75 v -4.15 h 7.65 v 18.85 h -4.9 z" />
  </g>
  <g
     transform="matrix(1.0539985,0,0,1.0539985,-18.514741,-18.899472)"
     id="g1009">
    <path
       id="path875"
       style="font-style:normal;font-variant:normal;font-weight:900;font-stretch:normal;font-size:40px;line-height:1.25;font-family:Qanelas;-inkscape-font-specification:'Qanelas Heavy';white-space:pre;fill:#ffffff;stroke-width:1.5035"
       d="M 81.052717,340.822 V 330.63159 H 66.254786 55.263791 v 41.23287 h 10.990995 v -13.54794 h 14.49092 V 348.12611 H 66.254786 V 340.822 Z" />
    <path
       id="path882"
       style="font-style:normal;font-variant:normal;font-weight:900;font-stretch:normal;font-size:40px;line-height:1.25;font-family:Qanelas;-inkscape-font-specification:'Qanelas Heavy';white-space:pre;fill:#ffffff;stroke-width:1.51367"
       d="m 636.95184,372.74802 c 10.82887,0 19.91517,-7.00959 21.53327,-16.72876 h -11.57569 c -1.12023,3.94657 -5.1655,6.42054 -9.95758,6.42054 -7.03254,0 -11.63792,-4.59452 -11.63792,-11.19178 0,-6.59726 4.60538,-11.19178 11.63792,-11.19178 4.79208,0 8.77512,2.47397 9.95758,6.42055 h 11.51346 c -1.61811,-9.77808 -10.7044,-16.72877 -21.47104,-16.72877 -13.1938,0 -22.71574,9.36576 -22.71574,21.5 0,12.13425 9.52194,21.5 22.71574,21.5 z" />
    <g
       id="g980"
       style="fill:#ffffff">
      <path
         d="m 281.2363,98.951676 c 8.75265,-2.496857 14.43011,-8.949613 11.89784,-17.826409 -2.56769,-9.000947 -11.11505,-9.784753 -17.68533,-9.991397 -4.22055,-0.205676 -7.4835,-0.34889 -8.17412,-2.769834 -0.44271,-1.551888 0.44464,-3.147562 3.11388,-3.909015 3.0417,-0.867702 4.83236,0.232529 5.54069,2.715549 l 11.04944,-3.152062 c -2.90415,-10.180381 -11.40656,-12.453805 -19.60052,-10.116322 -8.06982,2.302068 -13.74728,8.754824 -11.21501,17.63162 2.60311,9.125098 11.16817,9.970979 17.80053,10.159915 4.06098,0.116941 7.44809,0.224739 8.06788,2.397381 0.47812,1.676039 -0.4536,3.351496 -3.7436,4.290032 -3.66245,1.044784 -5.8168,0.316812 -6.68451,-2.724887 l -11.11151,3.16977 c 2.99269,10.490759 11.68132,12.711063 20.74434,10.125659 z"
         style="font-style:normal;font-variant:normal;font-weight:900;font-stretch:normal;font-size:64.5519px;line-height:1.25;font-family:Qanelas;-inkscape-font-specification:'Qanelas Heavy';letter-spacing:1px;white-space:pre;fill:#ffffff"
         id="path941" />
      <path
         d="m 322.3475,44.179966 -9.76954,1.449235 -21.13539,3.135272 1.63867,11.046599 9.76954,-1.449235 4.99181,33.650619 11.36586,-1.686038 -4.99181,-33.650619 9.76954,-1.449235 z"
         style="font-style:normal;font-variant:normal;font-weight:900;font-stretch:normal;font-size:64.5519px;line-height:1.25;font-family:Qanelas;-inkscape-font-specification:'Qanelas Heavy';letter-spacing:1px;white-space:pre;fill:#ffffff"
         id="path943" />
      <path
         d="m 357.67427,88.703744 12.52307,-5.84e-4 -14.71994,-45.185646 -13.81411,6.45e-4 -14.71572,45.187018 12.52306,-5.84e-4 1.87171,-6.519829 14.45962,-6.75e-4 z m -13.55667,-16.460103 4.45336,-15.621768 4.45481,15.621353 z"
         style="font-style:normal;font-variant:normal;font-weight:900;font-stretch:normal;font-size:64.5519px;line-height:1.25;font-family:Qanelas;-inkscape-font-specification:'Qanelas Heavy';letter-spacing:1px;white-space:pre;fill:#ffffff"
         id="path945" />
      <path
         d="m 402.10456,48.408189 -7.68006,-1.423024 -11.67876,-2.163938 -8.23237,44.430087 3.49093,0.646829 15.86789,2.940133 c 12.25001,2.269783 23.36793,-5.649094 25.69651,-18.216462 2.32859,-12.567367 -5.21413,-23.943842 -17.46414,-26.213625 z m -6.1978,33.449509 -7.68006,-1.423025 4.16323,-22.468929 7.68006,1.423024 c 6.09327,1.129011 9.64957,6.383497 8.39119,13.174953 -1.25837,6.791456 -6.46115,10.422988 -12.55442,9.293977 z"
         style="font-style:normal;font-variant:normal;font-weight:900;font-stretch:normal;font-size:64.5519px;line-height:1.25;font-family:Qanelas;-inkscape-font-specification:'Qanelas Heavy';letter-spacing:1px;white-space:pre;fill:#ffffff"
         id="path947" />
      <path
         d="m 436.05743,92.956532 2.32937,-6.433805 13.41388,4.856527 3.49406,-9.650706 -13.41388,-4.856528 2.17555,-6.00893 14.93128,5.405908 3.69184,-10.196973 -14.93128,-5.405909 -10.86463,-3.933567 -15.38267,42.487388 3.3383,1.208643 22.7611,8.24071 3.69184,-10.196974 z"
         style="font-style:normal;font-variant:normal;font-weight:900;font-stretch:normal;font-size:64.5519px;line-height:1.25;font-family:Qanelas;-inkscape-font-specification:'Qanelas Heavy';letter-spacing:1px;white-space:pre;fill:#ffffff"
         id="path949" />
    </g>
    <g
       id="g973"
       style="fill:#ffffff">
      <path
         d="m 235.69853,588.45009 -5.42912,-2.56215 -10.44959,-4.93146 -19.28503,40.86431 10.44959,4.93146 5.78551,-12.25929 5.42911,2.56215 c 8.17286,3.85701 17.37695,0.99138 21.34416,-7.41499 3.96721,-8.40638 0.32823,-17.33302 -7.84463,-21.19003 z m -8.81602,18.68083 -5.42912,-2.56215 4.10496,-8.69826 5.42912,2.56215 c 2.3351,1.102 3.31831,3.70738 2.1061,6.276 -1.2122,2.56861 -3.87596,3.52427 -6.21106,2.42226 z"
         style="font-style:normal;font-variant:normal;font-weight:900;font-stretch:normal;font-size:64.5519px;line-height:1.25;font-family:Qanelas;-inkscape-font-specification:'Qanelas Heavy';letter-spacing:6.5px;white-space:pre;fill:#ffffff"
         id="path924" />
      <path
         d="m 262.65805,647.67589 c 12.64984,3.65968 25.60971,-3.2756 29.30526,-16.04946 3.69556,-12.77386 -3.55951,-25.55745 -16.20935,-29.21713 -12.64984,-3.65968 -25.60971,3.2756 -29.30527,16.04946 -3.69556,12.77386 3.55952,25.55745 16.20936,29.21713 z m 3.13943,-10.85158 c -6.63497,-1.91954 -10.32042,-8.22729 -8.31118,-15.1723 2.00924,-6.94501 8.49326,-10.31067 15.12823,-8.39113 6.63496,1.91954 10.32042,8.22729 8.31118,15.1723 -2.00924,6.94501 -8.49327,10.31067 -15.12823,8.39113 z"
         style="font-style:normal;font-variant:normal;font-weight:900;font-stretch:normal;font-size:64.5519px;line-height:1.25;font-family:Qanelas;-inkscape-font-specification:'Qanelas Heavy';letter-spacing:6.5px;white-space:pre;fill:#ffffff"
         id="path926" />
      <path
         d="m 304.39414,610.10682 -6.91107,44.6547 11.41884,1.76726 6.91107,-44.6547 z"
         style="font-style:normal;font-variant:normal;font-weight:900;font-stretch:normal;font-size:64.5519px;line-height:1.25;font-family:Qanelas;-inkscape-font-specification:'Qanelas Heavy';letter-spacing:6.5px;white-space:pre;fill:#ffffff"
         id="path928" />
      <path
         d="m 353.03806,614.69633 -9.86176,-0.53841 -21.3349,-1.1648 -0.6088,11.15087 9.86176,0.53842 -1.85453,33.96826 11.47315,0.62639 1.85453,-33.96827 9.86176,0.53841 z"
         style="font-style:normal;font-variant:normal;font-weight:900;font-stretch:normal;font-size:64.5519px;line-height:1.25;font-family:Qanelas;-inkscape-font-specification:'Qanelas Heavy';letter-spacing:6.5px;white-space:pre;fill:#ffffff"
         id="path930" />
      <path
         d="m 371.97568,648.00017 -0.45575,-6.82731 14.23429,-0.9502 -0.68363,-10.24096 -14.23429,0.9502 -0.42566,-6.37644 15.84451,-1.05769 -0.72233,-10.82064 -15.8445,1.05769 -11.52913,0.76962 3.00968,45.08599 3.54247,-0.23648 24.15321,-1.61233 -0.72232,-10.82064 z"
         style="font-style:normal;font-variant:normal;font-weight:900;font-stretch:normal;font-size:64.5519px;line-height:1.25;font-family:Qanelas;-inkscape-font-specification:'Qanelas Heavy';letter-spacing:6.5px;white-space:pre;fill:#ffffff"
         id="path932" />
      <path
         d="m 410.58606,654.27054 13.53324,-2.77146 4.72066,-47.09087 -12.26845,2.51245 -1.91259,32.81035 -14.65614,-29.41725 -12.26845,2.51244 z"
         style="font-style:normal;font-variant:normal;font-weight:900;font-stretch:normal;font-size:64.5519px;line-height:1.25;font-family:Qanelas;-inkscape-font-specification:'Qanelas Heavy';letter-spacing:6.5px;white-space:pre;fill:#ffffff"
         id="path934" />
      <path
         d="m 433.1428,602.38212 14.00887,42.95993 10.98547,-3.58227 -14.00887,-42.95993 z"
         style="font-style:normal;font-variant:normal;font-weight:900;font-stretch:normal;font-size:64.5519px;line-height:1.25;font-family:Qanelas;-inkscape-font-specification:'Qanelas Heavy';letter-spacing:6.5px;white-space:pre;fill:#ffffff"
         id="path936" />
      <path
         d="m 473.71902,586.50854 9.73738,21.24234 -23.05785,-15.1363 -8.15659,3.73894 18.82919,41.07635 10.50381,-4.8149 -9.73738,-21.24234 23.05785,15.13631 8.09791,-3.71204 -18.82919,-41.07635 z"
         style="font-style:normal;font-variant:normal;font-weight:900;font-stretch:normal;font-size:64.5519px;line-height:1.25;font-family:Qanelas;-inkscape-font-specification:'Qanelas Heavy';letter-spacing:6.5px;white-space:pre;fill:#ffffff"
         id="path938" />
    </g>
  </g>
</svg>
