<?xml version="1.0" encoding="UTF-8" standalone="no"?>
<svg
   width="1000"
   height="1234.3276"
   viewBox="0 0 999.99999 1234.3276"
   id="svg2"
   version="1.1"
   inkscape:version="1.2 (dc2aeda, 2022-05-15)"
   sodipodi:docname="Logo_Football_Bourg-en-Bresse_PeÌronnas_01_-_2015.svg"
   xmlns:inkscape="http://www.inkscape.org/namespaces/inkscape"
   xmlns:sodipodi="http://sodipodi.sourceforge.net/DTD/sodipodi-0.dtd"
   xmlns:xlink="http://www.w3.org/1999/xlink"
   xmlns="http://www.w3.org/2000/svg"
   xmlns:svg="http://www.w3.org/2000/svg"
   xmlns:rdf="http://www.w3.org/1999/02/22-rdf-syntax-ns#"
   xmlns:cc="http://creativecommons.org/ns#"
   xmlns:dc="http://purl.org/dc/elements/1.1/">
  <defs
     id="defs4">
    <linearGradient
       inkscape:collect="always"
       id="linearGradient1940">
      <stop
         style="stop-color:#00598f;stop-opacity:1"
         offset="0"
         id="stop1936" />
      <stop
         style="stop-color:#004991;stop-opacity:1"
         offset="0.81993186"
         id="stop1946" />
      <stop
         style="stop-color:#004691;stop-opacity:1"
         offset="0.91586155"
         id="stop1944" />
      <stop
         style="stop-color:#004493;stop-opacity:1"
         offset="1"
         id="stop1938" />
    </linearGradient>
    <linearGradient
       inkscape:collect="always"
       id="linearGradient1924">
      <stop
         style="stop-color:#0082c8;stop-opacity:1"
         offset="0"
         id="stop1920" />
      <stop
         style="stop-color:#008bd2;stop-opacity:1"
         offset="0.50625861"
         id="stop1934" />
      <stop
         style="stop-color:#006fbb;stop-opacity:1"
         offset="0.80820292"
         id="stop1932" />
      <stop
         style="stop-color:#005eab;stop-opacity:1"
         offset="0.92015046"
         id="stop1930" />
      <stop
         style="stop-color:#0053a0;stop-opacity:1"
         offset="1"
         id="stop1922" />
    </linearGradient>
    <linearGradient
       inkscape:collect="always"
       id="linearGradient3532">
      <stop
         style="stop-color:#ec1481;stop-opacity:1"
         offset="0"
         id="stop3534" />
      <stop
         style="stop-color:#f37d32;stop-opacity:1"
         offset="1"
         id="stop3536" />
    </linearGradient>
    <linearGradient
       inkscape:collect="always"
       xlink:href="#linearGradient3532"
       id="linearGradient3538"
       x1="408.10162"
       y1="82.615761"
       x2="398.00009"
       y2="609.91541"
       gradientUnits="userSpaceOnUse" />
    <linearGradient
       inkscape:collect="always"
       xlink:href="#linearGradient3532"
       id="linearGradient4340"
       gradientUnits="userSpaceOnUse"
       x1="408.10162"
       y1="82.615761"
       x2="323.47617"
       y2="774.43994" />
    <linearGradient
       inkscape:collect="always"
       xlink:href="#linearGradient3532"
       id="linearGradient4518"
       gradientUnits="userSpaceOnUse"
       x1="-772.21954"
       y1="80.371803"
       x2="-768.85736"
       y2="612.15936" />
    <linearGradient
       inkscape:collect="always"
       xlink:href="#linearGradient3532"
       id="linearGradient4520"
       gradientUnits="userSpaceOnUse"
       x1="-780.07483"
       y1="70.273987"
       x2="-780.07855"
       y2="614.40332" />
    <radialGradient
       inkscape:collect="always"
       xlink:href="#linearGradient1940"
       id="radialGradient1942"
       cx="484.87335"
       cy="402.34256"
       fx="484.87335"
       fy="402.34256"
       r="225.61835"
       gradientTransform="matrix(-1.7556993,-1.8076896,1.821783,-1.7693873,605.1341,1942.2174)"
       gradientUnits="userSpaceOnUse" />
    <radialGradient
       inkscape:collect="always"
       xlink:href="#linearGradient1924"
       id="radialGradient9958"
       cx="511.20584"
       cy="429.34814"
       fx="511.20584"
       fy="429.34814"
       r="227.48825"
       gradientTransform="matrix(1.5543887,1.3305566,-1.7882152,2.0890367,484.36014,-1156.3145)"
       gradientUnits="userSpaceOnUse" />
  </defs>
  <sodipodi:namedview
     id="base"
     pagecolor="#ffffff"
     bordercolor="#666666"
     borderopacity="1.0"
     inkscape:pageopacity="0.0"
     inkscape:pageshadow="2"
     inkscape:zoom="1.979899"
     inkscape:cx="543.46207"
     inkscape:cy="1109.4"
     inkscape:document-units="px"
     inkscape:current-layer="layer1"
     showgrid="false"
     inkscape:window-width="1440"
     inkscape:window-height="745"
     inkscape:window-x="0"
     inkscape:window-y="25"
     inkscape:window-maximized="0"
     units="px"
     inkscape:document-rotation="0"
     inkscape:showpageshadow="2"
     inkscape:pagecheckerboard="0"
     inkscape:deskcolor="#d1d1d1"
     showguides="false" />
  <metadata
     id="metadata7">
    <rdf:RDF>
      <cc:Work
         rdf:about="">
        <dc:format>image/svg+xml</dc:format>
        <dc:type
           rdf:resource="http://purl.org/dc/dcmitype/StillImage" />
        <dc:title />
      </cc:Work>
    </rdf:RDF>
  </metadata>
  <g
     inkscape:label="Calque 1"
     inkscape:groupmode="layer"
     id="layer1"
     transform="translate(-1.9105551,177.40475)">
    <g
       id="g13522">
      <path
         id="path3382"
         style="fill:#ffffff;fill-rule:evenodd;stroke:none;stroke-width:1.30255px;stroke-linecap:butt;stroke-linejoin:miter;stroke-opacity:1"
         d="M 501.91054,-177.40475 C 343.36819,-177.23412 184.18873,-148.15578 51.279132,-90.683939 -83.862493,383.49557 55.912997,808.75467 501.91054,1056.9229 947.9081,808.75467 1087.6836,383.49557 952.54196,-90.683939 819.63237,-148.15578 660.4529,-177.23412 501.91054,-177.40475 Z" />
      <path
         id="path3390"
         style="fill:#bcbebe;fill-opacity:1;fill-rule:evenodd;stroke:none;stroke-width:1.24254px;stroke-linecap:butt;stroke-linejoin:miter;stroke-opacity:1"
         d="M 501.91054,-159.24457 C 347.65481,-159.07947 192.79578,-130.9437 67.80259,-75.332357 -59.289673,383.49689 64.288244,785.53192 501.91054,1040.2178 939.53285,785.53192 1063.1107,383.49689 936.01851,-75.332357 811.02531,-130.9437 656.16628,-159.07947 501.91054,-159.24457 Z" />
      <g
         id="g13507">
        <path
           style="fill:url(#radialGradient1942);fill-opacity:1;fill-rule:evenodd;stroke:none;stroke-width:1.1642px;stroke-linecap:butt;stroke-linejoin:miter;stroke-opacity:1"
           d="M 501.91054,-140.46089 C 368.26592,-137.9242 205.34509,-118.80059 86.705159,-58.030953 -35.112739,381.75675 99.884273,784.17223 501.91054,1014.3411 Z"
           id="path3419"
           inkscape:connector-curvature="0"
           sodipodi:nodetypes="cccc" />
        <path
           style="fill:url(#radialGradient9958);fill-opacity:1;fill-rule:evenodd;stroke:none;stroke-width:1.1642px;stroke-linecap:butt;stroke-linejoin:miter;stroke-opacity:1"
           d="m 501.91054,-140.46089 c 133.64462,2.53669 296.56545,21.6603 415.20539,82.429937 C 1038.9339,381.75675 903.93682,784.17223 501.91054,1014.3411 Z"
           id="path911"
           inkscape:connector-curvature="0"
           sodipodi:nodetypes="cccc" />
      </g>
    </g>
    <path
       style="color:#000000;fill:#ffffff;-inkscape-stroke:none"
       d="m 451.06055,663.94531 c -1.08428,-0.15391 -2.1414,-0.11733 -3.09571,0.0176 -1.90862,0.26983 -3.54752,0.8355 -4.93945,1.13281 -15.7562,3.35168 -27.81579,3.56611 -39.35937,-0.32031 l -0.27344,-0.0918 -0.28711,-0.0273 c -1.68201,-0.16778 -3.85413,0.32039 -5.26367,1.74609 -1.40955,1.42571 -2.36699,3.29983 -3.84375,6.3086 -5.10168,10.39416 -12.54436,31.92522 -20.80078,59.85156 l -7.53125,25.4707 3.4375,4.66407 c 1.75151,2.37635 2.76755,3.67011 2.83593,4.91406 0.0684,1.24394 -0.70607,3.57823 -4.46484,7.99219 -2.60732,3.06179 -4.12952,5.48699 -4.83984,9.15039 -0.71032,3.66339 -0.83998,8.46375 -1.46485,17.61718 -0.5754,8.42869 -0.85873,13.11667 -0.73828,16.14063 0.0602,1.51198 0.19919,2.64982 0.64648,3.73242 0.4473,1.0826 1.35951,1.98148 2.09961,2.43359 6.91668,4.22528 8.98048,6.0883 9.8418,7.64063 -0.0998,0.17175 -0.15693,0.28863 -0.30664,0.51367 -0.26672,0.40095 -0.56765,0.77091 -0.88477,1.4668 -0.15855,0.34794 -0.45062,0.80232 -0.2832,1.83203 0.0837,0.51485 0.39704,1.17026 0.86328,1.59375 0.46625,0.42349 0.97427,0.60101 1.35352,0.67773 1.48456,0.30037 1.59272,-0.10897 1.96484,-0.26172 0.37212,-0.15274 0.71156,-0.32675 1.08399,-0.52539 0.74485,-0.39726 1.59132,-0.89563 2.44531,-1.39843 0.85399,-0.50281 1.71231,-1.00883 2.39844,-1.38086 0.68613,-0.37203 1.45168,-0.59379 0.98437,-0.50586 2.28335,-0.42967 5.54047,1.2071 8.90625,5.02344 3.36578,3.81633 6.59722,9.48255 8.87891,15.5371 l 0.17187,0.45508 3.35547,3.69532 11.83203,0.16015 c 5.90332,0.08 11.35192,-2.49182 16.84571,-3.21875 5.49378,-0.72693 10.87277,-0.12462 17.54492,6.21875 2.25392,2.14287 4.97093,3.50196 7.4082,4.37695 2.43728,0.875 4.45255,1.28126 6.02734,1.28125 3.86311,0 7.26907,-2.34359 10.34375,-5.54687 3.07469,-3.20328 5.87356,-7.45331 8.17969,-12.12305 2.27045,-4.59747 4.54956,-8.18711 6.55469,-10.49218 1.8864,-2.16859 3.4104,-2.8988 4.06445,-2.98633 0.15603,0.0474 0.39301,0.11283 0.66016,0.26367 0.60873,0.34369 1.43577,0.88883 2.3125,1.52539 1.75345,1.27313 3.74436,2.92391 5.11523,4.19336 2.06605,1.91321 3.48167,2.90702 4.03321,3.35547 -0.19531,0.20488 -0.15995,0.21985 -0.75391,0.65429 l -0.74219,0.54297 -0.22461,0.89453 c -0.33914,1.35547 0.0112,2.85766 0.66211,4.05274 0.65094,1.19508 1.56575,2.31759 2.82813,3.74609 2.52475,2.85701 6.50848,6.89487 12.5332,13.55664 9.77658,10.81029 17.18476,19.2464 22.38867,25.01368 2.60196,2.88363 4.6459,5.09517 6.20703,6.64453 0.78057,0.77467 1.43336,1.38277 2.04493,1.86523 0.61156,0.48246 0.8522,1.11133 2.60156,1.11133 1.50543,0 2.16697,-0.5419 2.99609,-1.08594 0.82873,-0.54378 1.63257,-1.2263 2.35547,-2.02734 3.5e-4,-3.8e-4 0.002,3.8e-4 0.002,0 l 3.83594,-4.25196 h -1.12695 c 0.0727,-0.13222 0.12404,-0.17521 0.19922,-0.3125 1.09811,-2.0053 2.30401,-4.41266 3.38086,-6.79492 1.81853,-4.023 2.84864,-7.04599 3.95703,-8.77539 1.10838,-1.7294 1.93885,-2.43287 4.86523,-2.85351 3.57331,-0.51364 6.09093,-1.44248 7.87696,-3.11524 1.78602,-1.67275 2.51672,-3.74346 3.20507,-5.8125 3.07068,-9.23009 5.72217,-31.77875 5.83203,-47.38867 0.0471,-6.67774 -0.0926,-10.5736 -0.70507,-13.56836 -0.61246,-2.99475 -1.83502,-5.00603 -3.33399,-7.04101 -1.31596,-1.78653 -1.5167,-2.5294 -1.55078,-4.20313 -0.0341,-1.67372 0.34709,-4.28989 0.58594,-8.46094 0.34281,-5.98646 0.67951,-9.92285 1.03906,-12.30664 0.0856,-0.5676 0.15778,-0.74742 0.24219,-1.13672 0.80181,0.55167 1.80626,1.17915 3.2539,1.49805 2.83678,0.62497 5.92028,0.26184 8.9961,-1.26562 3.07582,-1.52747 6.2213,-4.11618 9.88086,-8.00586 4.25237,-4.5198 6.82362,-6.7135 8.56836,-9.19336 1.74473,-2.47987 2.16008,-5.3142 1.76953,-9.03321 -0.22497,-2.14228 -0.23575,-3.65061 -0.0879,-4.60742 0.14786,-0.95681 0.35042,-1.32231 0.75586,-1.7539 0.81086,-0.8632 3.31059,-1.93089 7.75,-3.79102 4.37867,-1.83467 8.13834,-3.4739 11.25781,-4.875 2.70971,-1.21712 4.97603,-1.80386 6.85352,-3.74219 0.93874,-0.96916 1.60144,-2.34183 1.79882,-3.79883 0.19738,-1.45699 0.0391,-2.99505 -0.34765,-4.83593 -0.80586,-3.83599 -0.33112,-6.27833 0.66992,-8.69727 1.00104,-2.41894 2.69227,-4.79532 4.24609,-7.86328 1.97527,-3.90008 3.02481,-5.49282 3.59766,-7.26367 0.28642,-0.88543 0.34452,-2.10181 0.01,-3.02344 -0.33475,-0.92163 -0.76353,-1.42971 -1.18359,-2.03125 -0.98502,-1.41067 -2.32835,-2.37085 -4.05078,-3.54492 -1.72243,-1.17408 -3.7801,-2.38885 -5.88867,-3.50977 -2.10857,-1.12092 -4.25912,-2.142 -6.1836,-2.90625 -1.92447,-0.76424 -3.4383,-1.34179 -5.17968,-1.34179 -3.03288,0 -5.50199,1.93278 -8.11524,4.88671 -2.61325,2.95394 -5.64473,7.23758 -9.89648,13.23047 -4.23654,5.9715 -11.07672,14.94084 -12.76563,16.75391 -4.10171,4.40338 -14.60554,7.93607 -26.55273,9.24805 -5.13415,0.56381 -8.06891,0.003 -9.32617,-0.74024 -1.25727,-0.74334 -1.56836,-1.54841 -1.56836,-3.64062 0,-1.66046 -0.71741,-3.4952 -2.01172,-4.79297 -1.29431,-1.29777 -2.98743,-2.28166 -5.38086,-3.48828 -2.72715,-1.37487 -4.86042,-2.42097 -6.86524,-3.07032 -2.00481,-0.64934 -4.01511,-0.87541 -5.9414,-0.33203 -3.85259,1.08676 -6.41866,4.28943 -11.14453,9.63086 -3.7583,4.24783 -6.88907,5.71648 -10.36328,6.41602 -2.88453,0.58081 -6.22781,0.55125 -9.9668,0.70312 0.16003,-0.85336 0.40415,-1.94675 0.32031,-1.72265 v -0.002 c 0.56981,-1.52558 1.05186,-2.60266 1.4336,-3.52929 0.38173,-0.92663 0.78552,-1.73441 0.72265,-3.02344 -0.0629,-1.28903 -0.9488,-2.49358 -1.73828,-3.14258 -0.78948,-0.64899 -1.64389,-1.15203 -2.83008,-1.9043 l 0.0703,0.0449 c -1.14452,-0.78011 -2.43952,-1.91972 -4.05468,-2.81836 -1.61517,-0.89865 -4.05956,-1.52435 -6.23633,-0.36914 l -0.5918,0.31445 -0.36133,0.56641 c -0.90381,1.41669 -1.163,1.24672 -0.94726,1.2539 0.21574,0.007 -0.34244,-0.12622 -1.20117,-1.12695 -1.71748,-2.00147 -4.03269,-6.23995 -7.11719,-9.89649 -3.57607,-4.2393 -5.64023,-6.3619 -6.44922,-7.6914 -0.80899,-1.3295 -0.87706,-2.01175 -0.60352,-5.19727 0.11928,-1.38905 -0.43597,-2.61072 -1.13867,-3.59179 -0.70269,-0.98108 -1.60946,-1.84998 -2.73242,-2.78711 -2.24592,-1.87427 -5.40149,-3.99307 -9.55664,-6.71094 -4.92119,-3.21895 -11.87989,-7.52462 -15.21094,-9.73438 l -0.0566,-0.0371 -0.0566,-0.0332 c -1.06906,-0.63144 -2.18135,-0.97695 -3.26562,-1.13086 z m -0.74414,5.00781 c 0.4838,0.0642 0.93183,0.22333 1.41211,0.50586 3.53204,2.33883 10.34596,6.55252 15.13281,9.6836 4.12274,2.69668 7.2076,4.79349 9.08398,6.35937 0.9382,0.78295 1.56485,1.44073 1.85352,1.84375 0.28867,0.40303 0.18287,0.42334 0.20312,0.1875 -0.2984,3.47496 -0.0666,5.99106 1.32813,8.28321 1.39476,2.29215 3.43877,4.21327 6.9082,8.32617 2.60386,3.08675 4.72585,7.11302 7.14453,9.93164 1.20934,1.40931 2.64419,2.82539 4.89649,2.90039 1.86013,0.0619 3.34494,-1.13912 4.58789,-2.69531 0.29469,-0.14126 0.4064,-0.17595 1.24218,0.28906 0.92395,0.51406 2.18547,1.5697 3.66211,2.57617 l 0.0352,0.0234 0.0352,0.0234 c 1.07259,0.68022 1.69376,1.08993 2.05859,1.36132 -0.0381,0.12891 -0.008,0.0188 -0.19336,0.46875 -0.33067,0.80269 -0.87155,2.01537 -1.49609,3.6875 -0.39506,1.05655 -0.57942,2.10537 -0.72461,3.58204 -0.0726,0.73871 -0.12966,1.46235 0.043,2.35937 0.0863,0.44851 0.2082,0.98302 0.70898,1.61133 0.50078,0.62831 1.6394,1.18512 2.54688,1.12109 4.35364,-0.30699 8.48514,0.002 12.84961,-0.87695 4.36447,-0.8788 8.82096,-3.11753 13.17187,-8.03516 4.71082,-5.32442 7.18144,-7.67346 8.71289,-8.10547 0.76573,-0.216 1.53431,-0.19358 2.98828,0.27735 1.45397,0.47092 3.45756,1.41785 6.14258,2.77148 2.21206,1.11518 3.51626,1.98745 4.06641,2.53906 0.55014,0.55162 0.52539,0.55982 0.52539,1.19532 0,3.06227 1.16158,6.30369 4.07031,8.02343 2.90873,1.71975 6.83334,2.03921 12.47266,1.41993 12.52818,-1.37578 23.82333,-4.5026 29.72461,-10.83789 2.52773,-2.71357 8.86924,-11.18437 13.19335,-17.2793 4.25008,-5.99053 7.28086,-10.23026 9.55665,-12.80274 2.27578,-2.57247 3.52218,-3.16992 4.30078,-3.16992 0.0843,0 1.61484,0.31368 3.29882,0.98242 1.68399,0.66875 3.70434,1.62294 5.67383,2.66993 1.96949,1.04698 3.89807,2.19196 5.41016,3.22265 1.51208,1.0307 2.65134,2.11905 2.74414,2.25196 0.3453,0.49449 0.41131,0.61682 0.45312,0.67382 -0.1868,0.53483 -1.25208,2.49066 -3.24609,6.42774 -1.33493,2.63576 -3.11344,5.08812 -4.4082,8.2168 -1.29476,3.12867 -1.94328,6.95224 -0.94727,11.69335 0.31961,1.52139 0.36174,2.53823 0.28516,3.10352 -0.0766,0.56529 -0.16148,0.68272 -0.41016,0.93945 -0.49735,0.51347 -2.36526,1.32802 -5.2832,2.63868 -3.078,1.38247 -6.79843,3.00565 -11.13867,4.82421 -4.3218,1.81086 -7.27702,2.6398 -9.49414,5 -1.10856,1.18011 -1.81276,2.75827 -2.07618,4.46289 -0.26341,1.70463 -0.18943,3.57664 0.0566,5.91993 0.34609,3.29566 0.24269,3.98723 -0.8711,5.57031 -1.11379,1.58308 -3.74178,3.98847 -8.11133,8.63281 -3.4246,3.63995 -6.20314,5.82596 -8.4375,6.93555 -2.23436,1.10959 -3.84727,1.24537 -5.63476,0.85156 -0.60371,-0.13299 -1.33108,-0.59876 -2.21094,-1.2168 -0.43993,-0.30901 -0.89393,-0.66158 -1.64258,-0.96679 -0.74865,-0.30522 -2.18027,-0.45462 -3.25,0.22656 -1.06973,0.68118 -1.47051,1.59613 -1.78711,2.50195 -0.3166,0.90583 -0.53278,1.94615 -0.73828,3.3086 -0.411,2.72489 -0.74167,6.72934 -1.08789,12.77539 -0.22688,3.9619 -0.64104,6.43665 -0.5918,8.85547 0.0493,2.41882 0.80947,4.77036 2.54102,7.12109 1.39051,1.88775 1.98708,2.78887 2.44727,5.03906 0.46018,2.25019 0.64801,5.93334 0.60156,12.51367 -0.10575,15.02491 -3.05463,38.2487 -5.57227,45.81641 -0.65055,1.95543 -1.12009,3.01439 -1.85547,3.70313 -0.73537,0.68873 -2.0629,1.3517 -5.11914,1.79101 -3.94855,0.56757 -6.74643,2.52013 -8.42968,5.14649 -1.68326,2.62635 -2.60703,5.66153 -4.3086,9.42578 -1.01921,2.25474 -2.18057,4.5728 -3.20703,6.44726 -1.02646,1.87447 -2.08933,3.44772 -2.22461,3.59766 l -0.008,0.008 c -0.38835,0.42854 -0.89351,0.85147 -1.3086,1.13086 -0.34134,-0.28949 -0.73628,-0.63321 -1.3125,-1.20508 -1.41525,-1.40457 -3.43394,-3.5824 -6.01367,-6.4414 -5.15946,-5.71801 -12.59041,-14.17901 -22.39258,-25.01758 -6.08622,-6.72977 -10.1591,-10.87135 -12.49414,-13.51367 -1.14002,-1.29006 -1.81903,-2.2041 -2.12109,-2.74219 0.70407,-0.60861 1.31591,-1.24783 1.72461,-2.13086 0.62899,-1.35898 0.18804,-3.2979 -0.55273,-4.25391 -1.48155,-1.912 -3.25448,-2.67264 -5.21094,-4.48437 -1.55208,-1.43724 -3.62584,-3.15585 -5.58203,-4.57617 -0.9781,-0.71017 -1.91824,-1.34266 -2.79883,-1.83985 -0.88059,-0.49718 -1.46124,-1.00195 -2.97852,-1.00195 -3.1136,0 -5.64285,1.9986 -8.0957,4.81836 -2.45285,2.81976 -4.87815,6.71994 -7.27734,11.57812 -2.12044,4.29373 -4.71349,8.17031 -7.28711,10.85157 -2.57363,2.68126 -5.07243,3.98047 -6.66993,3.98046 -0.40588,0 -2.34323,-0.27559 -4.30664,-0.98046 -1.9634,-0.70487 -4.09694,-1.82439 -5.62109,-3.27344 -7.62881,-7.2529 -15.25746,-8.43333 -21.7207,-7.57813 -6.46325,0.85521 -11.91946,3.23058 -16.10938,3.17383 l -9.61719,-0.1289 -1.30078,-1.43165 c -2.44813,-6.32621 -5.74939,-12.23231 -9.56836,-16.5625 -3.93455,-4.46124 -8.62353,-7.60938 -13.66796,-6.66015 -1.17386,0.22087 -1.65778,0.59438 -2.47071,1.03515 -0.35941,0.19488 -0.74924,0.43172 -1.1289,0.6504 -0.0384,-0.11731 6.5e-4,-0.20934 -0.0527,-0.33008 -1.47926,-3.34516 -4.61064,-5.70554 -12.21289,-10.34961 -0.19254,-0.11762 0.009,0.10484 -0.0469,-0.0312 -0.0562,-0.13609 -0.21464,-0.75918 -0.26368,-1.99024 -0.0981,-2.46211 0.15458,-7.18459 0.72852,-15.59179 0.62911,-9.21558 0.82184,-14.08896 1.38477,-16.99219 0.56292,-2.90323 1.26443,-3.93854 3.71679,-6.81836 4.08548,-4.79762 5.858,-8.2238 5.67383,-11.57422 -0.18417,-3.35042 -2.22132,-5.48418 -3.82227,-7.65625 l -1.93359,-2.625 6.8125,-23.04492 c 8.22108,-27.80676 15.75941,-49.41618 20.48828,-59.05078 1.42616,-2.90565 2.41331,-4.48594 2.89258,-4.97071 0.43698,-0.44199 0.2919,-0.36765 1.00195,-0.27734 12.49821,4.10407 25.56495,3.78524 41.62305,0.36914 h 0.002 c 1.78704,-0.38171 3.33051,-0.89255 4.58789,-1.07031 0.62869,-0.0889 1.15229,-0.11723 1.63868,-0.0527 z"
       id="path4514" />
    <g
       id="g4358"
       transform="matrix(1.2732612,0,0,1.2732612,-4.458495,-230.28185)">
      <g
         style="fill:#ffffff"
         transform="matrix(2.4815706,0,0,1.4752475,-547.92765,-378.7692)"
         id="g4349">
        <path
           id="rect4351"
           transform="matrix(0.4029706,0,0,0.67785236,220.79874,256.7496)"
           d="m 369.54883,760.93359 c -12.49875,0 -22.56055,8.34311 -22.56055,18.70703 v 37.8418 c 0,10.36394 10.0618,18.70703 22.56055,18.70703 12.49875,0 22.56055,-8.34309 22.56055,-18.70703 v -37.8418 c -10e-6,-10.36392 -10.0618,-18.70703 -22.56055,-18.70703 z m 0.16797,11.61719 c 5.03663,0 9.08984,3.97522 9.08984,8.91406 v 33.1836 c 0,4.93883 -4.05321,8.91406 -9.08984,8.91406 -5.03663,0 -9.0918,-3.97523 -9.0918,-8.91406 v -33.1836 c 0,-4.93884 4.05517,-8.91406 9.0918,-8.91406 z"
           style="opacity:1;fill:#ffffff;fill-opacity:1;stroke:none;stroke-width:7.5;stroke-linecap:round;stroke-linejoin:round;stroke-miterlimit:4;stroke-dasharray:none;stroke-dashoffset:0;stroke-opacity:1"
           inkscape:connector-curvature="0" />
      </g>
      <path
         sodipodi:nodetypes="cccccccc"
         inkscape:connector-curvature="0"
         id="path4356"
         d="m 400,772.18363 16.429,-13.75043 h 13.928 v 79.465 H 416.429 V 774.14792 L 400,788.3192 Z"
         style="fill:#ffffff;fill-rule:evenodd;stroke:none;stroke-width:1px;stroke-linecap:butt;stroke-linejoin:miter;stroke-opacity:1" />
    </g>
    <g
       transform="matrix(1.2732612,0,0,1.2732612,-8.4584997,-230.28184)"
       style="fill:url(#linearGradient3538);fill-opacity:1"
       id="g3519">
      <path
         transform="translate(941.42156,90.893424)"
         sodipodi:nodetypes="ccssccscccssssccsscsscccccssssscc"
         style="fill:url(#linearGradient4518);fill-opacity:1"
         d="m -816.82305,269.74713 c -1.65992,-1.16267 -3.41249,-4.08644 -3.89473,-6.49726 -0.58716,-2.93638 -1.73573,-4.3833 -3.47917,-4.3833 -1.4313,0 -4.09878,0.73765 -5.92764,-0.54331 -2.80777,-1.96667 -5.03649,-4.79917 -4.63367,-10.45252 l 2.2629,-7.05205 -10.67674,1.71051 c -4.1951,0.67209 -6.98956,-3.46828 -7.96558,-4.6443 -1.02585,-1.23616 -1.70204,-6.81585 -1.67943,-13.86009 0.0362,-11.11619 0.28203,-12.03542 4.3096,-16.0629 3.78885,-3.78901 9.43285,-4.98821 34.23233,-10.60792 38.31137,-8.68153 48.34312,-11.33646 68.40976,-18.10492 78.44771,-26.46027 136.44594,-80.297498 206.26002,-191.461932 3.01665,-4.803483 4.71219,-6.131469 7.80609,-6.11417 6.54151,0.03658 7.84842,1.613433 5.92043,7.143739 -1.28093,3.6748251 -1.27227,5.4549932 0.0362,7.5515566 1.43445,2.2969228 0.60472,5.2263869 -5.09939,18.0055944 -23.06808,51.680183 -61.73173,101.724572 -112.68242,145.850682 -10.62415,9.20124 -19.03184,17.01446 -18.68362,17.36271 2.32383,2.32382 31.17567,-20.91105 52.20508,-42.04162 23.09626,-23.20705 43.94495,-49.549215 70.37862,-88.922348 21.36991,-31.830858 21.90727,-32.482792 26.63798,-32.317213 2.6552,0.09289 5.22595,0.567166 5.71254,1.053785 0.48655,0.486594 -0.50993,4.529134 -2.21438,8.983403 -4.12695,10.784392 -3.82831,12.441035 1.18587,6.57843 3.73712,-4.369659 4.70017,-4.772943 9.3262,-3.905135 2.83713,0.532268 5.15856,1.57479 5.15856,2.31666 0,3.042557 -13.33428,31.115785 -21.70657,45.699925 -17.9875,31.333273 -36.34148,55.442903 -63.44005,83.333693 -53.56255,55.12884 -96.14257,80.68532 -163.89102,98.36684 -15.88603,4.14605 -66.57247,15.12738 -69.82348,15.12738 -0.56478,0 -2.38522,-0.95125 -4.04515,-2.11392 z"
         id="path3491"
         inkscape:connector-curvature="0" />
      <path
         inkscape:connector-curvature="0"
         id="path3509"
         d="m -729.49795,299.10845 c 4.02757,3.07147 8.98229,7.7601 11.01045,10.41915 3.87759,5.08356 5.95384,6.26682 4.22834,2.56608 -4.09271,-6.28621 -9.43958,-12.01307 -15.15419,-15.87214 -7.02865,-3.69846 -14.38069,-11.82256 -42.6478,-14.55617 -9.58192,-0.85622 -11.8609,-0.88569 -58.35005,-1.05077 -27.5037,-0.0976 -43.39889,-0.69154 -43.85545,-1.60446 -1.00515,-2.01053 13.15673,-8.93531 23.60532,-11.26402 12.22142,-2.7238 92.94277,-2.70766 107.71777,0.0218 31.92553,5.89738 55.30186,31.72336 66.4447,73.40808 3.55896,13.31323 3.8841,16.85496 3.99302,43.48144 0.0893,21.8827 -0.53625,32.89532 -2.55281,44.93081 -2.93646,17.52712 -13.03404,59.13419 -16.38163,67.50042 -2.09774,5.24321 -6.79856,8.59208 -12.06055,8.59208 -1.9743,0 -3.37874,2.00079 -5.15231,7.34077 -1.91801,5.77464 -3.47174,7.83365 -7.2829,9.65103 -2.69247,1.28389 -5.61247,4.16427 -6.57319,6.48372 -2.38423,5.7558 -10.16862,9.23611 -13.40942,5.99522 v -2.2e-4 c -1.78854,-1.78854 -0.98823,-10.4301 3.43046,-37.04711 12.34484,-74.3586 11.26409,-108.87598 -4.47087,-142.81468 -10.84644,-23.39494 -28.46225,-36.62509 -56.45172,-42.3976 -12.04508,-2.48414 -19.80338,-2.84211 -61.96105,-2.85876 -21.29524,-0.008 -35.79324,-0.24482 -42.97175,-0.69306 l 1.30205,-5.43114 c 4.98903,-2.42383 6.52221,-3.97182 6.52221,-6.58488 0,-4.19333 8.29602,-8.25092 22.87124,-11.18632 11.48271,-2.31258 72.75772,-3.48371 96.7027,-1.84826 23.16304,2.31518 26.6518,7.14217 41.44743,14.81899 z"
         style="fill:url(#linearGradient4520);fill-opacity:1"
         sodipodi:nodetypes="cccccscsscsccscscccssscccsscc"
         transform="translate(941.42156,90.893424)" />
      <path
         style="fill:url(#linearGradient4340);fill-opacity:1;fill-rule:evenodd;stroke:none;stroke-width:1px;stroke-linecap:butt;stroke-linejoin:miter;stroke-opacity:1"
         d="M 136.96954,528.58157 C 339.76247,393.73174 566.06951,409.65278 723.53553,441.02029 490.73578,367.5893 288.70935,399.42729 136.96954,528.58157 Z"
         id="path3515"
         inkscape:connector-curvature="0"
         sodipodi:nodetypes="ccc" />
    </g>
    <path
       id="path4625"
       style="fill:#0d3f6e;fill-opacity:1;fill-rule:evenodd;stroke:none;stroke-width:1.18504px;stroke-linecap:butt;stroke-linejoin:miter;stroke-opacity:1"
       d="m 501.91054,-144.7094 c -148.01617,0.16108 -296.6184,27.6136 -418.568868,81.871198 C -40.656786,384.82177 92.687927,786.29819 501.91054,1020.587 911.13319,786.29819 1044.4779,384.82177 920.47942,-62.838202 798.52896,-117.0958 649.92673,-144.54832 501.91054,-144.7094 Z m 0,10.24806 c 152.93861,0 292.56394,25.39186 411.20364,80.42979 C 1034.9319,385.75527 903.93607,780.17459 501.91054,1010.3428 99.885026,780.17459 -31.110742,385.75527 90.706915,-54.03155 209.34661,-109.06948 348.97195,-134.46134 501.91054,-134.46134 Z" />
    <g
       id="g945">
      <g
         transform="matrix(1.2732612,0,0,1.2732612,-8.4584994,-230.28184)"
         style="fill:#ffffff"
         id="g4411">
        <path
           style="opacity:1;fill:#ffffff;fill-opacity:1;stroke:none;stroke-width:7.5;stroke-linecap:round;stroke-linejoin:round;stroke-miterlimit:4;stroke-dasharray:none;stroke-dashoffset:0;stroke-opacity:1"
           d="m 145.04688,279.22628 v 138.63067 h 46.35011 V 364.5625 h 88.90379 v -26.42188 h -88.90379 v -32.51171 h 94.33934 v -26.41435 z"
           transform="matrix(0.78855423,0,0,0.78855423,8.2085931,41.344917)"
           id="rect4363"
           inkscape:connector-curvature="0"
           sodipodi:nodetypes="ccccccccccc" />
      </g>
      <path
         inkscape:connector-curvature="0"
         style="fill:#ffffff;fill-opacity:1;stroke:none;stroke-width:0.260509;stroke-linecap:round;stroke-linejoin:round;stroke-miterlimit:4;stroke-dasharray:none;stroke-dashoffset:0;stroke-opacity:1"
         d="m 511.77819,102.70825 v 139.19601 h 122.81738 c 25.04184,0.24497 50.44638,-7.57886 50.6371,-36.63373 0.14398,-21.93447 -8.97288,-30.92969 -32.3637,-34.60435 17.26639,-3.35702 27.62349,-11.37093 27.36019,-32.56018 -0.32353,-26.03552 -16.3713,-35.24945 -48.65499,-35.39774 z m 46.53621,26.86288 h 60.26107 c 8.00788,0 14.45349,5.48044 14.45349,12.28747 v 6.3464 c 0,6.80703 -6.44561,12.28747 -14.45349,12.28747 H 558.3144 Z m 0,53.094 h 63.96893 c 8.346,0 15.06527,5.88262 15.06527,13.19018 v 6.81643 c 0,7.30755 -6.71927,13.19018 -15.06527,13.19018 H 558.3144 Z"
         id="path4409"
         sodipodi:nodetypes="cccscscccsssscccsssscc" />
      <path
         inkscape:connector-curvature="0"
         style="fill:#ffffff;fill-opacity:1;stroke:none;stroke-width:0.260509;stroke-linecap:round;stroke-linejoin:round;stroke-miterlimit:4;stroke-dasharray:none;stroke-dashoffset:0;stroke-opacity:1"
         d="m 312.38556,102.70826 3.6e-4,139.196 H 435.2033 c 25.04184,0.24497 50.44637,-7.57886 50.63709,-36.63373 0.14399,-21.93447 -8.97287,-30.92969 -32.3637,-34.60435 17.2664,-3.35702 27.62349,-11.37093 27.36019,-32.56018 -0.32352,-26.03552 -16.3713,-35.24946 -48.65498,-35.39775 z m 46.53657,26.86287 h 60.26106 c 8.00789,0 14.4535,5.48044 14.4535,12.28747 v 6.3464 c 0,6.80703 -6.44561,12.28747 -14.4535,12.28747 h -60.26106 z m 0,53.094 h 63.96893 c 8.346,0 15.06526,5.88262 15.06526,13.19018 v 6.81643 c 0,7.30755 -6.71926,13.19018 -15.06526,13.19018 h -63.96893 z"
         id="path431"
         sodipodi:nodetypes="cccscscccsssscccsssscc" />
      <path
         id="path504"
         style="fill:#ffffff;fill-opacity:1;stroke:none;stroke-width:0.260509;stroke-linecap:round;stroke-linejoin:round;stroke-miterlimit:4;stroke-dasharray:none;stroke-dashoffset:0;stroke-opacity:1"
         d="m 709.78556,102.70853 v 139.19572 l 46.5371,-4.1e-4 v -39.85351 h 76.28125 c 15.96381,0.10538 47.9168,-7.74238 48,-49.67188 -0.0832,-41.92948 -32.03619,-49.7753 -48,-49.66992 z m 47.13671,26.86328 h 54.26172 c 11.79994,0 19.66133,6.31301 19.67383,15.91406 v 12.97852 c -0.0125,9.60105 -7.87389,15.91406 -19.67383,15.91406 h -54.26172 z"
         sodipodi:nodetypes="cccccccccsccscc" />
    </g>
    <g
       id="g1173"
       transform="matrix(1.3025462,0,0,1.3025462,-18.935567,-272.36309)"
       style="stroke:#ffffff">
      <g
         id="g1125"
         style="font-style:normal;font-weight:normal;font-size:180px;line-height:125%;font-family:Sans;letter-spacing:4.29644px;word-spacing:0px;fill:#ffffff;fill-opacity:1;stroke:#ffffff;stroke-width:2.14822;stroke-linecap:butt;stroke-linejoin:miter;stroke-miterlimit:4;stroke-dasharray:none;stroke-opacity:1"
         transform="matrix(0.23275066,0,0,0.23275066,552.71048,448.63796)">
        <path
           id="path1109"
           style="font-style:normal;font-variant:normal;font-weight:bold;font-stretch:normal;font-family:'DIN Alternate';-inkscape-font-specification:'DIN Alternate Bold';letter-spacing:4.29644px;fill:#ffffff;stroke:#ffffff;stroke-width:2.14822;stroke-miterlimit:4;stroke-dasharray:none;stroke-opacity:1"
           d="m -645.08398,566.96454 h 19.42382 v -54.75586 h 53.26172 v -17.22656 h -53.26172 v -37.79297 h 62.40235 v -18.36914 h -81.82617 z"
           inkscape:connector-curvature="0" />
        <path
           id="path1111"
           style="font-style:normal;font-variant:normal;font-weight:bold;font-stretch:normal;font-family:'DIN Alternate';-inkscape-font-specification:'DIN Alternate Bold';letter-spacing:4.29644px;fill:#ffffff;stroke:#ffffff;stroke-width:2.14822;stroke-miterlimit:4;stroke-dasharray:none;stroke-opacity:1"
           d="m -553.42426,521.26142 q 0,14.41406 2.37304,21.97265 2.46094,7.5586 7.5586,13.09571 3.77929,4.30664 10.54687,7.73437 6.67969,3.7793 17.13867,3.95508 10.81055,-0.17578 17.49024,-3.95508 3.60351,-1.58203 5.88867,-3.7793 2.54883,-1.93359 4.30664,-3.95507 5.44922,-5.53711 7.73438,-13.09571 2.19726,-7.55859 2.19726,-21.97265 0,-14.41407 -2.19726,-22.14844 -2.28516,-7.55859 -7.73438,-12.74414 -3.60351,-4.57031 -10.19531,-8.17383 -6.67969,-3.42773 -17.49024,-3.60351 -10.45898,0.17578 -17.13867,3.60351 -6.76758,3.60352 -10.54687,8.17383 -5.09766,5.18555 -7.5586,12.74414 -2.37304,7.73437 -2.37304,22.14844 z m 56.86523,0.17578 q 0,9.3164 -0.8789,13.71094 -0.87891,4.48242 -3.60352,7.91015 -2.02148,2.63672 -5.97656,4.65821 -3.7793,1.93359 -8.78907,1.93359 -4.6582,0 -8.61328,-1.93359 -3.77929,-2.02149 -6.15234,-4.65821 -2.37305,-3.42773 -3.42773,-7.91015 -1.05469,-4.39454 -1.05469,-13.88672 0,-9.58008 1.05469,-14.0625 1.05468,-4.30664 3.42773,-7.5586 2.37305,-3.07617 6.15234,-4.83398 3.95508,-1.8457 8.61328,-1.8457 5.00977,0 8.78907,1.8457 3.95508,1.75781 5.97656,4.83398 2.72461,3.25196 3.60352,7.5586 0.8789,4.48242 0.8789,14.23828 z"
           inkscape:connector-curvature="0" />
        <path
           id="path1113"
           style="font-style:normal;font-variant:normal;font-weight:bold;font-stretch:normal;font-family:'DIN Alternate';-inkscape-font-specification:'DIN Alternate Bold';letter-spacing:4.29644px;fill:#ffffff;stroke:#ffffff;stroke-width:2.14822;stroke-miterlimit:4;stroke-dasharray:none;stroke-opacity:1"
           d="m -459.12782,521.26142 q 0,14.41406 2.37304,21.97265 2.46094,7.5586 7.5586,13.09571 3.77929,4.30664 10.54687,7.73437 6.67969,3.7793 17.13867,3.95508 10.81055,-0.17578 17.49024,-3.95508 3.60351,-1.58203 5.88867,-3.7793 2.54883,-1.93359 4.30664,-3.95507 5.44922,-5.53711 7.73438,-13.09571 2.19726,-7.55859 2.19726,-21.97265 0,-14.41407 -2.19726,-22.14844 -2.28516,-7.55859 -7.73438,-12.74414 -3.60351,-4.57031 -10.19531,-8.17383 -6.67969,-3.42773 -17.49024,-3.60351 -10.45898,0.17578 -17.13867,3.60351 -6.76758,3.60352 -10.54687,8.17383 -5.09766,5.18555 -7.5586,12.74414 -2.37304,7.73437 -2.37304,22.14844 z m 56.86523,0.17578 q 0,9.3164 -0.8789,13.71094 -0.87891,4.48242 -3.60352,7.91015 -2.02148,2.63672 -5.97656,4.65821 -3.7793,1.93359 -8.78907,1.93359 -4.6582,0 -8.61328,-1.93359 -3.77929,-2.02149 -6.15234,-4.65821 -2.37305,-3.42773 -3.42773,-7.91015 -1.05469,-4.39454 -1.05469,-13.88672 0,-9.58008 1.05469,-14.0625 1.05468,-4.30664 3.42773,-7.5586 2.37305,-3.07617 6.15234,-4.83398 3.95508,-1.8457 8.61328,-1.8457 5.00977,0 8.78907,1.8457 3.95508,1.75781 5.97656,4.83398 2.72461,3.25196 3.60352,7.5586 0.8789,4.48242 0.8789,14.23828 z"
           inkscape:connector-curvature="0" />
        <path
           id="path1115"
           style="font-style:normal;font-variant:normal;font-weight:bold;font-stretch:normal;font-family:'DIN Alternate';-inkscape-font-specification:'DIN Alternate Bold';letter-spacing:4.29644px;fill:#ffffff;stroke:#ffffff;stroke-width:2.14822;stroke-miterlimit:4;stroke-dasharray:none;stroke-opacity:1"
           d="m -359.29425,475.73407 h -9.14063 v 13.97461 h 9.14063 v 54.75586 q 0,10.81055 6.32812,16.52344 6.15235,5.97656 15.82032,5.97656 h 9.58008 v -17.31445 h -6.85547 q -6.67969,0.17578 -6.50391,-6.76758 v -53.17383 h 13.35938 v -13.97461 h -13.35938 v -27.77343 h -18.36914 z"
           inkscape:connector-curvature="0" />
        <path
           id="path1117"
           style="font-style:normal;font-variant:normal;font-weight:bold;font-stretch:normal;font-family:'DIN Alternate';-inkscape-font-specification:'DIN Alternate Bold';letter-spacing:4.29644px;fill:#ffffff;stroke:#ffffff;stroke-width:2.14822;stroke-miterlimit:4;stroke-dasharray:none;stroke-opacity:1"
           d="m -306.13065,566.96454 h 18.36914 v -9.58008 0 q 9.14063,10.28321 23.55469,10.63477 8.52539,-0.17578 14.58985,-3.42773 6.15234,-3.16407 9.93164,-8.4375 3.77929,-4.30665 5.18554,-11.68946 1.31836,-7.03125 1.31836,-23.20312 0,-16.43555 -1.31836,-23.37891 -1.40625,-7.03125 -5.18554,-11.33789 -7.73438,-11.51367 -24.52149,-11.95312 -7.03125,0 -12.56836,2.90039 -5.97656,3.07617 -10.98633,7.91015 v 0 -46.58203 h -18.36914 z m 36.38672,-74.0039 q 6.50391,0 10.28321,2.19726 3.77929,2.37305 5.36132,6.50391 1.75782,4.13086 2.37305,8.96484 0.17578,5.18555 0.17578,10.63477 0,5.18554 -0.17578,10.10742 -0.61523,5.18555 -2.37305,9.31641 -1.58203,3.95507 -5.36132,6.5039 -3.7793,2.46094 -10.28321,2.46094 -6.15234,0 -9.75586,-2.63672 -3.77929,-2.54883 -5.53711,-6.67969 -1.66992,-4.13086 -2.19726,-9.22851 -0.52735,-5.00977 -0.52735,-9.84375 0,-5.27344 0.52735,-10.10742 0.52734,-4.83399 2.19726,-8.96485 1.75782,-4.13086 5.53711,-6.67969 3.60352,-2.54882 9.75586,-2.54882 z"
           inkscape:connector-curvature="0" />
        <path
           id="path1119"
           style="font-style:normal;font-variant:normal;font-weight:bold;font-stretch:normal;font-family:'DIN Alternate';-inkscape-font-specification:'DIN Alternate Bold';letter-spacing:4.29644px;fill:#ffffff;stroke:#ffffff;stroke-width:2.14822;stroke-miterlimit:4;stroke-dasharray:none;stroke-opacity:1"
           d="m -160.41818,566.96454 h 18.36914 v -62.31445 q -0.17578,-16.69922 -10.45899,-23.55469 -10.2832,-6.67969 -27.50976,-6.5039 -20.39063,-0.35157 -30.84961,13.35937 l 14.41406,10.98633 v 0 q 2.37305,-3.95508 6.50391,-5.625 3.95508,-1.40625 10.81054,-1.40625 18.89649,-0.35156 18.72071,11.68945 v 9.58008 h -25.40039 q -14.58985,0.17578 -22.14844,7.91016 -7.55859,7.55859 -7.55859,19.07226 0,12.04102 8.70117,19.77539 8.26172,7.91016 23.55469,8.08594 9.3164,0 14.58984,-2.28516 5.36133,-2.19726 7.91016,-6.85547 h 0.35156 z m 0,-32.08008 q 0,10.28321 -4.30664,13.1836 -4.7461,2.90039 -16.25977,2.72461 -9.14062,0 -13.0957,-3.60352 -4.13086,-3.25195 -4.13086,-7.91015 -0.17578,-10.63477 15.82031,-10.98633 h 21.97266 z"
           inkscape:connector-curvature="0" />
        <path
           id="path1121"
           style="font-style:normal;font-variant:normal;font-weight:bold;font-stretch:normal;font-family:'DIN Alternate';-inkscape-font-specification:'DIN Alternate Bold';letter-spacing:4.29644px;fill:#ffffff;stroke:#ffffff;stroke-width:2.14822;stroke-miterlimit:4;stroke-dasharray:none;stroke-opacity:1"
           d="m -114.02209,544.8161 q 0,12.04102 6.85546,17.13868 6.50391,5.00976 16.523442,5.00976 h 8.173828 v -17.31445 h -6.328125 q -6.855469,0 -6.855469,-6.24024 V 438.82001 h -18.369136 z"
           inkscape:connector-curvature="0" />
        <path
           id="path1123"
           style="font-style:normal;font-variant:normal;font-weight:bold;font-stretch:normal;font-family:'DIN Alternate';-inkscape-font-specification:'DIN Alternate Bold';letter-spacing:4.29644px;fill:#ffffff;stroke:#ffffff;stroke-width:2.14822;stroke-miterlimit:4;stroke-dasharray:none;stroke-opacity:1"
           d="m -62.967834,544.8161 q 0,12.04102 6.855468,17.13868 6.503907,5.00976 16.523438,5.00976 h 8.173828 v -17.31445 h -6.328125 q -6.855469,0 -6.855469,-6.24024 V 438.82001 h -18.36914 z"
           inkscape:connector-curvature="0" />
      </g>
      <g
         id="g1153"
         style="font-style:normal;font-weight:normal;font-size:41.8951px;line-height:125%;font-family:Sans;letter-spacing:0.45px;word-spacing:0px;fill:#ffffff;fill-opacity:1;stroke:#ffffff;stroke-width:0.5;stroke-linecap:butt;stroke-linejoin:miter;stroke-miterlimit:4;stroke-dasharray:none;stroke-opacity:1"
         transform="translate(0,47.500074)">
        <path
           id="path1127"
           style="font-style:normal;font-variant:normal;font-weight:bold;font-stretch:normal;font-family:'DIN Alternate';-inkscape-font-specification:'DIN Alternate Bold';letter-spacing:0.45px;fill:#ffffff;stroke:#ffffff;stroke-width:0.5;stroke-miterlimit:4;stroke-dasharray:none;stroke-opacity:1"
           d="m 402.56633,582.59865 h 12.56036 q 3.51853,0 5.87104,-2.35251 2.37297,-2.25022 2.41388,-6.11652 0,-2.33205 -1.16603,-4.31634 -1.24785,-1.92292 -3.68219,-2.55708 v -0.0818 q 1.28877,-0.61369 2.1684,-1.37059 0.87964,-0.71598 1.35014,-1.51379 0.92055,-1.67744 0.87963,-3.51853 0,-3.60036 -2.22977,-5.78922 -2.20931,-2.1684 -6.60748,-2.20931 h -11.55798 v 29.82572 z m 11.47616,-13.23542 q 2.51616,0.0409 3.68218,1.32968 1.16603,1.30922 1.16603,3.15032 0,1.80018 -1.16603,3.1094 -1.16602,1.32968 -3.68218,1.37059 h -6.95525 v -8.95999 z m -0.42959,-12.56035 q 2.47525,0.0409 3.64127,1.20694 1.18648,1.24785 1.18648,3.04803 0,1.80018 -1.18648,2.98666 -1.16602,1.28877 -3.64127,1.28877 h -6.52566 v -8.5304 z"
           inkscape:connector-curvature="0" />
        <path
           id="path1129"
           style="font-style:normal;font-variant:normal;font-weight:bold;font-stretch:normal;font-family:'DIN Alternate';-inkscape-font-specification:'DIN Alternate Bold';letter-spacing:0.45px;fill:#ffffff;stroke:#ffffff;stroke-width:0.5;stroke-miterlimit:4;stroke-dasharray:none;stroke-opacity:1"
           d="m 427.11421,571.96122 q 0,3.35488 0.55233,5.11415 0.57278,1.75927 1.75927,3.04803 0.87963,1.00238 2.45479,1.80018 1.5547,0.87964 3.98903,0.92055 2.51617,-0.0409 4.07087,-0.92055 0.83872,-0.36822 1.37059,-0.87963 0.59324,-0.45005 1.00237,-0.92055 1.26831,-1.28876 1.80018,-3.04803 0.51142,-1.75927 0.51142,-5.11415 0,-3.35488 -0.51142,-5.15506 -0.53187,-1.75927 -1.80018,-2.96621 -0.83872,-1.06374 -2.37296,-1.90247 -1.5547,-0.7978 -4.07087,-0.83872 -2.43433,0.0409 -3.98903,0.83872 -1.57516,0.83873 -2.45479,1.90247 -1.18649,1.20694 -1.75927,2.96621 -0.55233,1.80018 -0.55233,5.15506 z m 13.23542,0.0409 q 0,2.1684 -0.20457,3.19123 -0.20456,1.04329 -0.83872,1.8411 -0.4705,0.61369 -1.39105,1.0842 -0.87963,0.45004 -2.04566,0.45004 -1.0842,0 -2.00474,-0.45004 -0.87964,-0.47051 -1.43196,-1.0842 -0.55233,-0.79781 -0.79781,-1.8411 -0.24548,-1.02283 -0.24548,-3.23214 0,-2.22977 0.24548,-3.27306 0.24548,-1.00237 0.79781,-1.75926 0.55232,-0.71599 1.43196,-1.12512 0.92054,-0.42959 2.00474,-0.42959 1.16603,0 2.04566,0.42959 0.92055,0.40913 1.39105,1.12512 0.63416,0.75689 0.83872,1.75926 0.20457,1.04329 0.20457,3.31397 z"
           inkscape:connector-curvature="0" />
        <path
           id="path1131"
           style="font-style:normal;font-variant:normal;font-weight:bold;font-stretch:normal;font-family:'DIN Alternate';-inkscape-font-specification:'DIN Alternate Bold';letter-spacing:0.45px;fill:#ffffff;stroke:#ffffff;stroke-width:0.5;stroke-miterlimit:4;stroke-dasharray:none;stroke-opacity:1"
           d="m 449.55506,575.47975 q 0.0409,3.60037 2.35251,5.44146 2.12748,1.88201 4.76638,1.92292 3.3958,0 5.50283,-2.51616 h 0.0818 v 2.27068 H 466.534 V 561.3647 h -4.27542 v 12.64218 q 0,2.14794 -1.18649,3.35488 -1.16602,1.20694 -3.00712,1.20694 -1.84109,0 -3.02757,-1.20694 -1.20694,-1.20694 -1.20694,-3.35488 V 561.3647 h -4.27543 v 14.11505 z"
           inkscape:connector-curvature="0" />
        <path
           id="path1133"
           style="font-style:normal;font-variant:normal;font-weight:bold;font-stretch:normal;font-family:'DIN Alternate';-inkscape-font-specification:'DIN Alternate Bold';letter-spacing:0.45px;fill:#ffffff;stroke:#ffffff;stroke-width:0.5;stroke-miterlimit:4;stroke-dasharray:none;stroke-opacity:1"
           d="m 472.50732,582.59865 h 4.27542 v -12.78537 q 0.0409,-2.33206 1.35014,-3.37534 1.16603,-1.06375 2.80255,-1.06375 1.45242,0 2.80256,1.06375 v 0 l 3.1094,-3.70265 q -1.90246,-1.59561 -4.45954,-1.63653 -3.41625,0 -5.52328,2.51617 h -0.0818 v -2.25023 h -4.27542 v 21.23395 z"
           inkscape:connector-curvature="0" />
        <path
           id="path1135"
           style="font-style:normal;font-variant:normal;font-weight:bold;font-stretch:normal;font-family:'DIN Alternate';-inkscape-font-specification:'DIN Alternate Bold';letter-spacing:0.45px;fill:#ffffff;stroke:#ffffff;stroke-width:0.5;stroke-miterlimit:4;stroke-dasharray:none;stroke-opacity:1"
           d="m 501.18742,580.36888 v 2.18886 q -0.0409,2.1684 -1.35013,3.39579 -1.32968,1.20694 -3.51854,1.20694 -1.16603,-0.0409 -2.25023,-0.63415 -1.06374,-0.53187 -1.882,-1.28877 v 0 l -3.31397,2.6389 q 3.04803,3.47763 7.36437,3.55945 3.76402,0 6.46429,-2.31159 2.67982,-2.25023 2.76164,-7.03707 V 561.3647 h -4.27543 v 2.25023 0 q -2.31159,-2.51617 -5.48237,-2.51617 -2.06611,0.0409 -3.43671,0.79781 -1.43196,0.79781 -2.18885,1.80018 -0.83872,1.02283 -1.20694,2.51616 -0.38868,1.51379 -0.38868,5.78922 0,4.19361 0.38868,5.68694 0.36822,1.51379 1.20694,2.55707 0.75689,0.92055 2.18885,1.71836 1.3706,0.83872 3.43671,0.87963 3.37534,-0.0818 5.48237,-2.47525 z m -8.42812,-8.36675 q 0,-2.47525 0.16366,-3.43671 0.14319,-0.96146 0.67506,-1.5547 0.42959,-0.57278 1.30923,-1.12511 0.83872,-0.4705 2.08657,-0.51142 1.24785,0.0409 2.08657,0.51142 0.83872,0.55233 1.26831,1.12511 0.53187,0.59324 0.71598,1.5547 0.12274,0.96146 0.12274,3.43671 0,2.43434 -0.12274,3.35488 -0.18411,0.96146 -0.71598,1.59562 -0.42959,0.57278 -1.26831,1.04329 -0.83872,0.57278 -2.08657,0.57278 -1.24785,0 -2.08657,-0.57278 -0.87964,-0.47051 -1.30923,-1.04329 -0.53187,-0.63416 -0.67506,-1.59562 -0.16366,-0.92054 -0.16366,-3.35488 z"
           inkscape:connector-curvature="0" />
        <path
           id="path1137"
           style="font-style:normal;font-variant:normal;font-weight:bold;font-stretch:normal;font-family:'DIN Alternate';-inkscape-font-specification:'DIN Alternate Bold';letter-spacing:0.45px;fill:#ffffff;stroke:#ffffff;stroke-width:0.5;stroke-miterlimit:4;stroke-dasharray:none;stroke-opacity:1"
           d="m 538.43881,573.59775 v -3.51854 q -0.0409,-4.1936 -2.59799,-6.58702 -2.51616,-2.35251 -6.15744,-2.39343 -1.51379,0 -3.06849,0.55233 -1.57516,0.55233 -2.84347,1.80018 -1.24785,1.2274 -2.04566,3.35489 -0.7978,2.08657 -0.7978,5.23689 0,3.27305 0.92054,5.31871 0.83872,2.12749 2.18886,3.31397 0.69552,0.57279 1.49333,0.96146 0.7569,0.45005 1.5547,0.71598 1.59562,0.49096 3.27306,0.49096 4.39817,0.0409 7.65077,-3.43671 l -3.08895,-2.6389 v 0 q -2.04566,2.06612 -4.64365,2.06612 -2.22977,0 -3.60036,-1.35014 -1.47287,-1.32968 -1.47287,-3.88675 z m -13.23542,-3.51854 q 0.12274,-2.47525 1.32968,-3.74356 1.22739,-1.20694 3.15031,-1.20694 1.92292,0 3.15032,1.20694 1.24785,1.26831 1.32968,3.74356 z"
           inkscape:connector-curvature="0" />
        <path
           id="path1139"
           style="font-style:normal;font-variant:normal;font-weight:bold;font-stretch:normal;font-family:'DIN Alternate';-inkscape-font-specification:'DIN Alternate Bold';letter-spacing:0.45px;fill:#ffffff;stroke:#ffffff;stroke-width:0.5;stroke-miterlimit:4;stroke-dasharray:none;stroke-opacity:1"
           d="m 543.3688,582.59865 h 4.27543 v -12.64218 q 0,-2.22977 1.20694,-3.39579 1.18649,-1.18649 3.02758,-1.18649 1.84109,0 3.00712,1.18649 1.18648,1.16602 1.18648,3.39579 v 12.64218 h 4.27543 V 568.4836 q -0.10228,-3.64128 -2.27068,-5.52329 -2.18886,-1.86155 -4.82776,-1.86155 -3.41625,0 -5.52328,2.51617 h -0.0818 v -2.25023 h -4.27543 v 21.23395 z"
           inkscape:connector-curvature="0" />
        <path
           id="path1141"
           style="font-style:normal;font-variant:normal;font-weight:bold;font-stretch:normal;font-family:'DIN Alternate';-inkscape-font-specification:'DIN Alternate Bold';letter-spacing:0.45px;fill:#ffffff;stroke:#ffffff;stroke-width:0.5;stroke-miterlimit:4;stroke-dasharray:none;stroke-opacity:1"
           d="m 577.30622,582.59865 h 12.56035 q 3.51853,0 5.87104,-2.35251 2.37297,-2.25022 2.41388,-6.11652 0,-2.33205 -1.16602,-4.31634 -1.24786,-1.92292 -3.68219,-2.55708 v -0.0818 q 1.28876,-0.61369 2.1684,-1.37059 0.87963,-0.71598 1.35013,-1.51379 0.92055,-1.67744 0.87964,-3.51853 0,-3.60036 -2.22977,-5.78922 -2.20932,-2.1684 -6.60748,-2.20931 h -11.55798 v 29.82572 z m 11.47615,-13.23542 q 2.51616,0.0409 3.68219,1.32968 1.16602,1.30922 1.16602,3.15032 0,1.80018 -1.16602,3.1094 -1.16603,1.32968 -3.68219,1.37059 h -6.95525 v -8.95999 z m -0.42959,-12.56035 q 2.47525,0.0409 3.64128,1.20694 1.18648,1.24785 1.18648,3.04803 0,1.80018 -1.18648,2.98666 -1.16603,1.28877 -3.64128,1.28877 h -6.52566 v -8.5304 z"
           inkscape:connector-curvature="0" />
        <path
           id="path1143"
           style="font-style:normal;font-variant:normal;font-weight:bold;font-stretch:normal;font-family:'DIN Alternate';-inkscape-font-specification:'DIN Alternate Bold';letter-spacing:0.45px;fill:#ffffff;stroke:#ffffff;stroke-width:0.5;stroke-miterlimit:4;stroke-dasharray:none;stroke-opacity:1"
           d="m 602.89737,582.59865 h 4.27543 v -12.78537 q 0.0409,-2.33206 1.35013,-3.37534 1.16603,-1.06375 2.80256,-1.06375 1.45242,0 2.80255,1.06375 v 0 l 3.10941,-3.70265 q -1.90247,-1.59561 -4.45954,-1.63653 -3.41626,0 -5.52329,2.51617 h -0.0818 v -2.25023 h -4.27543 v 21.23395 z"
           inkscape:connector-curvature="0" />
        <path
           id="path1145"
           style="font-style:normal;font-variant:normal;font-weight:bold;font-stretch:normal;font-family:'DIN Alternate';-inkscape-font-specification:'DIN Alternate Bold';letter-spacing:0.45px;fill:#ffffff;stroke:#ffffff;stroke-width:0.5;stroke-miterlimit:4;stroke-dasharray:none;stroke-opacity:1"
           d="m 635.36196,573.59775 v -3.51854 q -0.0409,-4.1936 -2.59799,-6.58702 -2.51616,-2.35251 -6.15744,-2.39343 -1.51379,0 -3.06849,0.55233 -1.57516,0.55233 -2.84347,1.80018 -1.24785,1.2274 -2.04566,3.35489 -0.7978,2.08657 -0.7978,5.23689 0,3.27305 0.92054,5.31871 0.83872,2.12749 2.18886,3.31397 0.69552,0.57279 1.49333,0.96146 0.7569,0.45005 1.5547,0.71598 1.59562,0.49096 3.27306,0.49096 4.39817,0.0409 7.65077,-3.43671 l -3.08895,-2.6389 v 0 q -2.04566,2.06612 -4.64365,2.06612 -2.22977,0 -3.60036,-1.35014 -1.47287,-1.32968 -1.47287,-3.88675 z m -13.23542,-3.51854 q 0.12274,-2.47525 1.32967,-3.74356 1.2274,-1.20694 3.15032,-1.20694 1.92292,0 3.15032,1.20694 1.24785,1.26831 1.32968,3.74356 z"
           inkscape:connector-curvature="0" />
        <path
           id="path1147"
           style="font-style:normal;font-variant:normal;font-weight:bold;font-stretch:normal;font-family:'DIN Alternate';-inkscape-font-specification:'DIN Alternate Bold';letter-spacing:0.45px;fill:#ffffff;stroke:#ffffff;stroke-width:0.5;stroke-miterlimit:4;stroke-dasharray:none;stroke-opacity:1"
           d="m 640.9261,576.11391 -2.98666,2.92529 q 4.15269,3.80493 9.34866,3.80493 3.82539,-0.0409 6.28018,-1.75927 2.47525,-1.67744 2.51616,-4.76639 0,-2.6389 -1.37059,-4.35725 -1.47288,-1.75927 -4.78685,-2.00475 l -3.51853,-0.26593 q -1.5547,-0.16366 -2.1684,-0.7569 -0.67507,-0.53187 -0.63416,-1.24785 0,-1.12511 0.83873,-1.84109 0.7978,-0.71599 2.80255,-0.71599 1.75927,0 3.1094,0.51142 1.3706,0.57278 2.59799,1.45242 v 0 l 2.6389,-3.08895 q -1.5547,-1.35013 -3.51853,-2.14794 -1.02283,-0.36822 -2.18886,-0.57279 -1.16603,-0.18411 -2.6389,-0.18411 -3.3958,0 -5.60511,1.63653 -2.27068,1.63653 -2.3116,4.90959 0.0409,2.72072 1.75927,4.23451 1.67744,1.5547 4.35726,1.80018 l 3.76401,0.32731 q 1.18649,0.0409 1.90247,0.51141 0.69552,0.45005 0.69552,1.59562 0,1.28876 -1.16602,2.00475 -1.16603,0.71598 -3.00713,0.71598 -4.11177,0 -6.70976,-2.72073 z"
           inkscape:connector-curvature="0" />
        <path
           id="path1149"
           style="font-style:normal;font-variant:normal;font-weight:bold;font-stretch:normal;font-family:'DIN Alternate';-inkscape-font-specification:'DIN Alternate Bold';letter-spacing:0.45px;fill:#ffffff;stroke:#ffffff;stroke-width:0.5;stroke-miterlimit:4;stroke-dasharray:none;stroke-opacity:1"
           d="m 661.50541,576.11391 -2.98666,2.92529 q 4.15269,3.80493 9.34867,3.80493 3.82538,-0.0409 6.28017,-1.75927 2.47525,-1.67744 2.51617,-4.76639 0,-2.6389 -1.3706,-4.35725 -1.47287,-1.75927 -4.78684,-2.00475 l -3.51854,-0.26593 q -1.5547,-0.16366 -2.1684,-0.7569 -0.67506,-0.53187 -0.63415,-1.24785 0,-1.12511 0.83872,-1.84109 0.79781,-0.71599 2.80255,-0.71599 1.75927,0 3.10941,0.51142 1.37059,0.57278 2.59799,1.45242 v 0 l 2.6389,-3.08895 q -1.5547,-1.35013 -3.51854,-2.14794 -1.02283,-0.36822 -2.18885,-0.57279 -1.16603,-0.18411 -2.63891,-0.18411 -3.39579,0 -5.6051,1.63653 -2.27069,1.63653 -2.3116,4.90959 0.0409,2.72072 1.75927,4.23451 1.67744,1.5547 4.35725,1.80018 l 3.76402,0.32731 q 1.18648,0.0409 1.90246,0.51141 0.69553,0.45005 0.69553,1.59562 0,1.28876 -1.16603,2.00475 -1.16603,0.71598 -3.00712,0.71598 -4.11178,0 -6.70977,-2.72073 z"
           inkscape:connector-curvature="0" />
        <path
           id="path1151"
           style="font-style:normal;font-variant:normal;font-weight:bold;font-stretch:normal;font-family:'DIN Alternate';-inkscape-font-specification:'DIN Alternate Bold';letter-spacing:0.45px;fill:#ffffff;stroke:#ffffff;stroke-width:0.5;stroke-miterlimit:4;stroke-dasharray:none;stroke-opacity:1"
           d="m 697.91811,573.59775 v -3.51854 q -0.0409,-4.1936 -2.59799,-6.58702 -2.51616,-2.35251 -6.15744,-2.39343 -1.51378,0 -3.06849,0.55233 -1.57515,0.55233 -2.84346,1.80018 -1.24786,1.2274 -2.04566,3.35489 -0.79781,2.08657 -0.79781,5.23689 0,3.27305 0.92055,5.31871 0.83872,2.12749 2.18885,3.31397 0.69553,0.57279 1.49333,0.96146 0.7569,0.45005 1.55471,0.71598 1.59561,0.49096 3.27305,0.49096 4.39817,0.0409 7.65077,-3.43671 l -3.08895,-2.6389 v 0 q -2.04566,2.06612 -4.64365,2.06612 -2.22976,0 -3.60036,-1.35014 -1.47287,-1.32968 -1.47287,-3.88675 z m -13.23542,-3.51854 q 0.12274,-2.47525 1.32968,-3.74356 1.22739,-1.20694 3.15031,-1.20694 1.92292,0 3.15032,1.20694 1.24785,1.26831 1.32968,3.74356 z"
           inkscape:connector-curvature="0" />
      </g>
      <g
         id="g1171"
         style="font-style:normal;font-weight:normal;font-size:41.8951px;line-height:125%;font-family:Sans;letter-spacing:0px;word-spacing:0px;fill:#ffffff;fill-opacity:1;stroke:#ffffff;stroke-width:0.5;stroke-linecap:butt;stroke-linejoin:miter;stroke-miterlimit:4;stroke-dasharray:none;stroke-opacity:1"
         transform="translate(0,97.000302)">
        <path
           id="path1155"
           style="font-style:normal;font-variant:normal;font-weight:bold;font-stretch:normal;font-family:'DIN Alternate';-inkscape-font-specification:'DIN Alternate Bold';letter-spacing:0.84px;fill:#ffffff;stroke:#ffffff;stroke-width:0.5;stroke-miterlimit:4;stroke-dasharray:none;stroke-opacity:1"
           d="m 407.08724,557.04836 h 6.52566 q 1.84109,-0.0409 3.23214,0.83872 0.92055,0.53187 1.43196,1.45242 0.49096,1.02283 0.49096,2.51616 0,1.80018 -1.20694,3.27305 -1.26831,1.51379 -3.78447,1.55471 h -6.68931 z m -4.52091,25.55029 h 4.52091 v -11.6398 h 6.87342 q 4.60273,-0.0818 6.99616,-2.94576 2.33205,-2.72072 2.33205,-6.03469 0,-2.45479 -0.92055,-4.25498 -0.87963,-1.86155 -2.29114,-2.86392 -1.67744,-1.32968 -3.31397,-1.75927 -1.63652,-0.3273 -3.39579,-0.3273 h -10.80109 z"
           inkscape:connector-curvature="0" />
        <path
           id="path1157"
           style="font-style:normal;font-variant:normal;font-weight:bold;font-stretch:normal;font-family:'DIN Alternate';-inkscape-font-specification:'DIN Alternate Bold';letter-spacing:0.84px;fill:#ffffff;stroke:#ffffff;stroke-width:0.5;stroke-miterlimit:4;stroke-dasharray:none;stroke-opacity:1"
           d="m 443.54218,573.59775 v -3.51854 q -0.0409,-4.1936 -2.59798,-6.58702 -2.51617,-2.35251 -6.15744,-2.39343 -1.51379,0 -3.06849,0.55233 -1.57516,0.55233 -2.84347,1.80018 -1.24785,1.2274 -2.04566,3.35489 -0.79781,2.08657 -0.79781,5.23689 0,3.27305 0.92055,5.31871 0.83872,2.12749 2.18886,3.31397 0.69552,0.57279 1.49333,0.96146 0.75689,0.45005 1.5547,0.71598 1.59561,0.49096 3.27306,0.49096 4.39817,0.0409 7.65077,-3.43671 l -3.08895,-2.6389 v 0 q -2.04566,2.06612 -4.64365,2.06612 -2.22977,0 -3.60036,-1.35014 -1.47288,-1.32968 -1.47288,-3.88675 z m -13.23542,-3.51854 q 0.12274,-2.47525 1.32968,-3.74356 1.2274,-1.20694 3.15032,-1.20694 1.92292,0 3.15031,1.20694 1.24786,1.26831 1.32968,3.74356 z"
           inkscape:connector-curvature="0" />
        <path
           id="path1159"
           style="font-style:normal;font-variant:normal;font-weight:bold;font-stretch:normal;font-family:'DIN Alternate';-inkscape-font-specification:'DIN Alternate Bold';letter-spacing:0.84px;fill:#ffffff;stroke:#ffffff;stroke-width:0.5;stroke-miterlimit:4;stroke-dasharray:none;stroke-opacity:1"
           d="m 448.86218,582.59865 h 4.27543 v -12.78537 q 0.0409,-2.33206 1.35013,-3.37534 1.16603,-1.06375 2.80256,-1.06375 1.45242,0 2.80255,1.06375 v 0 l 3.1094,-3.70265 q -1.90246,-1.59561 -4.45953,-1.63653 -3.41626,0 -5.52329,2.51617 h -0.0818 v -2.25023 h -4.27543 v 21.23395 z"
           inkscape:connector-curvature="0" />
        <path
           id="path1161"
           style="font-style:normal;font-variant:normal;font-weight:bold;font-stretch:normal;font-family:'DIN Alternate';-inkscape-font-specification:'DIN Alternate Bold';letter-spacing:0.84px;fill:#ffffff;stroke:#ffffff;stroke-width:0.5;stroke-miterlimit:4;stroke-dasharray:none;stroke-opacity:1"
           d="m 464.20591,571.96122 q 0,3.35488 0.55233,5.11415 0.57278,1.75927 1.75927,3.04803 0.87963,1.00238 2.45479,1.80018 1.5547,0.87964 3.98904,0.92055 2.51616,-0.0409 4.07086,-0.92055 0.83872,-0.36822 1.37059,-0.87963 0.59324,-0.45005 1.00238,-0.92055 1.2683,-1.28876 1.80018,-3.04803 0.51141,-1.75927 0.51141,-5.11415 0,-3.35488 -0.51141,-5.15506 -0.53188,-1.75927 -1.80018,-2.96621 -0.83873,-1.06374 -2.37297,-1.90247 -1.5547,-0.7978 -4.07086,-0.83872 -2.43434,0.0409 -3.98904,0.83872 -1.57516,0.83873 -2.45479,1.90247 -1.18649,1.20694 -1.75927,2.96621 -0.55233,1.80018 -0.55233,5.15506 z m 13.23542,0.0409 q 0,2.1684 -0.20456,3.19123 -0.20457,1.04329 -0.83872,1.8411 -0.47051,0.61369 -1.39105,1.0842 -0.87964,0.45004 -2.04566,0.45004 -1.0842,0 -2.00475,-0.45004 -0.87963,-0.47051 -1.43196,-1.0842 -0.55233,-0.79781 -0.79781,-1.8411 -0.24548,-1.02283 -0.24548,-3.23214 0,-2.22977 0.24548,-3.27306 0.24548,-1.00237 0.79781,-1.75926 0.55233,-0.71599 1.43196,-1.12512 0.92055,-0.42959 2.00475,-0.42959 1.16602,0 2.04566,0.42959 0.92054,0.40913 1.39105,1.12512 0.63415,0.75689 0.83872,1.75926 0.20456,1.04329 0.20456,3.31397 z"
           inkscape:connector-curvature="0" />
        <path
           id="path1163"
           style="font-style:normal;font-variant:normal;font-weight:bold;font-stretch:normal;font-family:'DIN Alternate';-inkscape-font-specification:'DIN Alternate Bold';letter-spacing:0.84px;fill:#ffffff;stroke:#ffffff;stroke-width:0.5;stroke-miterlimit:4;stroke-dasharray:none;stroke-opacity:1"
           d="m 487.03676,582.59865 h 4.27543 v -12.64218 q 0,-2.22977 1.20694,-3.39579 1.18648,-1.18649 3.02757,-1.18649 1.8411,0 3.00712,1.18649 1.18649,1.16602 1.18649,3.39579 v 12.64218 h 4.27543 V 568.4836 q -0.10229,-3.64128 -2.27069,-5.52329 -2.18885,-1.86155 -4.82775,-1.86155 -3.41626,0 -5.52329,2.51617 h -0.0818 v -2.25023 h -4.27543 v 21.23395 z"
           inkscape:connector-curvature="0" />
        <path
           id="path1165"
           style="font-style:normal;font-variant:normal;font-weight:bold;font-stretch:normal;font-family:'DIN Alternate';-inkscape-font-specification:'DIN Alternate Bold';letter-spacing:0.84px;fill:#ffffff;stroke:#ffffff;stroke-width:0.5;stroke-miterlimit:4;stroke-dasharray:none;stroke-opacity:1"
           d="m 510.46084,582.59865 h 4.27543 v -12.64218 q 0,-2.22977 1.20694,-3.39579 1.18649,-1.18649 3.02758,-1.18649 1.84109,0 3.00712,1.18649 1.18648,1.16602 1.18648,3.39579 v 12.64218 h 4.27543 V 568.4836 q -0.10228,-3.64128 -2.27068,-5.52329 -2.18886,-1.86155 -4.82776,-1.86155 -3.41625,0 -5.52328,2.51617 h -0.0818 v -2.25023 h -4.27543 v 21.23395 z"
           inkscape:connector-curvature="0" />
        <path
           id="path1167"
           style="font-style:normal;font-variant:normal;font-weight:bold;font-stretch:normal;font-family:'DIN Alternate';-inkscape-font-specification:'DIN Alternate Bold';letter-spacing:0.84px;fill:#ffffff;stroke:#ffffff;stroke-width:0.5;stroke-miterlimit:4;stroke-dasharray:none;stroke-opacity:1"
           d="m 545.03378,582.59865 h 4.27543 v -14.50373 q -0.0409,-3.88675 -2.43434,-5.48237 -2.39342,-1.5547 -6.40291,-1.51379 -4.74593,-0.0818 -7.18027,3.10941 l 3.35488,2.55707 v 0 q 0.55233,-0.92054 1.51379,-1.30922 0.92055,-0.32731 2.51616,-0.32731 4.39817,-0.0818 4.35726,2.72073 v 2.22977 h -5.91196 q -3.39579,0.0409 -5.15506,1.8411 -1.75927,1.75926 -1.75927,4.43908 0,2.80255 2.0252,4.60273 1.92292,1.8411 5.48237,1.88201 2.1684,0 3.3958,-0.53187 1.24785,-0.51142 1.84109,-1.59562 h 0.0818 v 1.88201 z m 0,-7.46666 q 0,2.39342 -1.00237,3.06849 -1.10466,0.67507 -3.78447,0.63416 -2.12749,0 -3.04804,-0.83872 -0.96146,-0.7569 -0.96146,-1.8411 -0.0409,-2.47525 3.68219,-2.55707 h 5.11415 z"
           inkscape:connector-curvature="0" />
        <path
           id="path1169"
           style="font-style:normal;font-variant:normal;font-weight:bold;font-stretch:normal;font-family:'DIN Alternate';-inkscape-font-specification:'DIN Alternate Bold';letter-spacing:0.84px;fill:#ffffff;stroke:#ffffff;stroke-width:0.5;stroke-miterlimit:4;stroke-dasharray:none;stroke-opacity:1"
           d="m 556.30664,576.11391 -2.98667,2.92529 q 4.15269,3.80493 9.34867,3.80493 3.82539,-0.0409 6.28018,-1.75927 2.47525,-1.67744 2.51616,-4.76639 0,-2.6389 -1.37059,-4.35725 -1.47288,-1.75927 -4.78685,-2.00475 l -3.51853,-0.26593 q -1.5547,-0.16366 -2.1684,-0.7569 -0.67507,-0.53187 -0.63416,-1.24785 0,-1.12511 0.83872,-1.84109 0.79781,-0.71599 2.80256,-0.71599 1.75927,0 3.1094,0.51142 1.37059,0.57278 2.59799,1.45242 v 0 l 2.6389,-3.08895 q -1.5547,-1.35013 -3.51853,-2.14794 -1.02283,-0.36822 -2.18886,-0.57279 -1.16603,-0.18411 -2.6389,-0.18411 -3.3958,0 -5.60511,1.63653 -2.27068,1.63653 -2.3116,4.90959 0.0409,2.72072 1.75927,4.23451 1.67744,1.5547 4.35726,1.80018 l 3.76401,0.32731 q 1.18648,0.0409 1.90247,0.51141 0.69552,0.45005 0.69552,1.59562 0,1.28876 -1.16603,2.00475 -1.16602,0.71598 -3.00712,0.71598 -4.11177,0 -6.70976,-2.72073 z"
           inkscape:connector-curvature="0" />
      </g>
    </g>
  </g>
</svg>
